<?xml version="1.0"?>
<svg xmlns="http://www.w3.org/2000/svg" xmlns:xlink="http://www.w3.org/1999/xlink" width="512" height="512" viewBox="0 0 128 128"><defs><linearGradient id="a" x1="105.877" y1="105.877" x2="22.129" y2="22.129" gradientUnits="userSpaceOnUse"><stop offset="0" stop-color="#3ba9fd"/><stop offset="1" stop-color="#bae543"/></linearGradient></defs><path d="M123.25,64A59.25,59.25,0,1,1,20.668,23.591a1.75,1.75,0,1,1,2.559,2.387,55.641,55.641,0,1,0,12.36-9.955A1.75,1.75,0,1,1,33.8,13.014,59.264,59.264,0,0,1,123.25,64Zm-96.7-41.879a1.746,1.746,0,0,0,1.14-.423c1.062-.913,2.174-1.8,3.305-2.63a1.75,1.75,0,0,0-2.074-2.82c-1.2.885-2.384,1.825-3.513,2.8a1.75,1.75,0,0,0,1.142,3.077ZM64,13.75A50.25,50.25,0,1,1,13.75,64,50.307,50.307,0,0,1,64,13.75ZM18.4,74.25H23.96v-4H17.68Q17.953,72.279,18.4,74.25Zm-1.058-7.5H23.96v-5.5H17.338c-.054.911-.088,1.826-.088,2.75S17.284,65.839,17.338,66.75Zm6.622-13H18.4q-.443,1.971-.716,4h6.28Zm20.29,52.609V102.29A7.759,7.759,0,0,1,52,94.54h5.75V76.232a13.816,13.816,0,0,1-5.982-5.982H33.46V76a7.759,7.759,0,0,1-7.75,7.75H21.641A47.029,47.029,0,0,0,44.25,106.359Zm3.5-80.649A4.254,4.254,0,0,0,52,29.96H76a4.254,4.254,0,0,0,4.25-4.25V20.167q-1.234-.459-2.5-.851V25.71A1.749,1.749,0,0,1,76,27.46H52a1.749,1.749,0,0,1-1.75-1.75V19.316q-1.266.392-2.5.851Zm10-1.75V17.68q-2.029.273-4,.716V23.96Zm16.5,0V18.4q-1.971-.443-4-.716v6.28Zm-13,9.5V50.527a13.789,13.789,0,0,1,5.5,0V33.46ZM53.75,64A10.25,10.25,0,1,0,64,53.75,10.261,10.261,0,0,0,53.75,64Zm54.083-16.25H102.29A4.254,4.254,0,0,0,98.04,52V76a4.254,4.254,0,0,0,4.25,4.25h5.543q.459-1.234.851-2.5H102.29A1.749,1.749,0,0,1,100.54,76V52a1.749,1.749,0,0,1,1.75-1.75h6.394Q108.293,48.984,107.833,47.75Zm2.487,22.5h-6.28v4H109.6Q110.047,72.279,110.32,70.25Zm.342-3.5c.054-.911.088-1.826.088-2.75s-.034-1.839-.088-2.75H104.04v5.5Zm-1.058-13H104.04v4h6.28Q110.047,55.721,109.6,53.75ZM94.54,61.25H77.473a13.789,13.789,0,0,1,0,5.5H94.54ZM50.25,64a13.768,13.768,0,0,1,.277-2.75H33.46v5.5H50.527A13.768,13.768,0,0,1,50.25,64ZM52,98.04a4.254,4.254,0,0,0-4.25,4.25v5.543q1.234.459,2.5.851V102.29A1.749,1.749,0,0,1,52,100.54H76a1.749,1.749,0,0,1,1.75,1.75v6.394q1.266-.391,2.5-.851V102.29A4.254,4.254,0,0,0,76,98.04Zm18.25,6v6.28q2.029-.273,4-.716V104.04Zm-16.5,0V109.6q1.971.443,4,.716v-6.28ZM64,110.75c.924,0,1.839-.034,2.75-.088V104.04h-5.5v6.622C62.161,110.716,63.076,110.75,64,110.75Zm42.359-27H102.29A7.759,7.759,0,0,1,94.54,76V70.25H76.232a13.816,13.816,0,0,1-5.982,5.982V82.5a1.75,1.75,0,0,1-3.5,0V77.473a13.789,13.789,0,0,1-5.5,0V94.54h5.5V92.375a1.75,1.75,0,0,1,3.5,0V94.54H76a7.759,7.759,0,0,1,7.75,7.75v4.069A47.029,47.029,0,0,0,106.359,83.75ZM83.75,21.641V25.71A7.759,7.759,0,0,1,76,33.46H70.25V51.768a13.816,13.816,0,0,1,5.982,5.982H94.54V52a7.759,7.759,0,0,1,7.75-7.75h4.069A47.029,47.029,0,0,0,83.75,21.641ZM64,17.25c-.924,0-1.839.034-2.75.088V23.96h5.5V17.338C65.839,17.284,64.924,17.25,64,17.25Zm-42.359,27H25.71a7.735,7.735,0,0,1,5.176,1.984,1.75,1.75,0,0,1-2.34,2.6A4.237,4.237,0,0,0,25.71,47.75H20.167q-.459,1.234-.851,2.5H25.71A1.749,1.749,0,0,1,27.46,52V76a1.749,1.749,0,0,1-1.75,1.75H19.316q.392,1.266.851,2.5H25.71A4.254,4.254,0,0,0,29.96,76V54.333a1.75,1.75,0,0,1,3.5,0V57.75H51.768a13.816,13.816,0,0,1,5.982-5.982V33.46H52a7.759,7.759,0,0,1-7.75-7.75V21.641A47.029,47.029,0,0,0,21.641,44.25Zm66.55-13.023A41.313,41.313,0,0,1,93.1,35.5a1.75,1.75,0,0,0,2.5-2.449,44.822,44.822,0,0,0-5.325-4.639,1.75,1.75,0,0,0-2.084,2.813Z" fill="url(#a)"/></svg>
