<?xml version="1.0"?>
<svg xmlns="http://www.w3.org/2000/svg" xmlns:xlink="http://www.w3.org/1999/xlink" width="512" height="512" viewBox="0 0 128 128"><defs><linearGradient id="a" x1="105.876" y1="105.876" x2="22.124" y2="22.124" gradientUnits="userSpaceOnUse"><stop offset="0" stop-color="#3ba9fd"/><stop offset="1" stop-color="#bae543"/></linearGradient></defs><path d="M64,4.75A59.25,59.25,0,1,0,123.25,64,59.317,59.317,0,0,0,64,4.75Zm0,115A55.75,55.75,0,1,1,119.75,64,55.813,55.813,0,0,1,64,119.75Zm48.925-44.261c-.367,1.561-.814,3.12-1.327,4.635A1.75,1.75,0,0,1,108.283,79c.479-1.408.894-2.858,1.234-4.31a1.75,1.75,0,0,1,3.408.8ZM114.25,64c0,1.5-.068,3.026-.2,4.525a1.75,1.75,0,1,1-3.486-.313c.125-1.4.188-2.812.188-4.212a46.767,46.767,0,1,0-5.042,21.106,1.75,1.75,0,0,1,3.121,1.586A50.241,50.241,0,1,1,114.25,64Zm-88.4,14.323A40.824,40.824,0,0,0,29.086,85a1.75,1.75,0,1,1-3,1.808,44.276,44.276,0,0,1-3.518-7.245,1.751,1.751,0,0,1,3.276-1.235Zm29.3-16.542,7.5,9.126a1.752,1.752,0,0,0,2.7,0l7.5-9.126a1.75,1.75,0,0,0-.16-2.392l-7.5-6.98a1.75,1.75,0,0,0-2.384,0l-7.5,6.98A1.75,1.75,0,0,0,55.146,61.781ZM64,56.08l5.1,4.75L64,67.04l-5.1-6.21ZM85.15,36.4,73.175,47.543,85.024,58.569a1.75,1.75,0,0,1,.16,2.392L72.093,76.886,85.04,92.639A1.749,1.749,0,0,1,84.8,95.1l-6.95,5.72a1.75,1.75,0,0,1-2.464-.239L64,86.73,52.613,100.582a1.751,1.751,0,0,1-2.463.24L43.19,95.1a1.75,1.75,0,0,1-.24-2.463L55.905,76.883,42.816,60.961a1.75,1.75,0,0,1,.16-2.392L54.825,47.543l-1.886-1.754a1.75,1.75,0,0,1,2.385-2.562l3.263,3.035a1.751,1.751,0,0,1,0,2.563L46.565,60.01,59.522,75.772a1.748,1.748,0,0,1,0,2.223L46.766,93.509l4.255,3.5L62.648,82.863a1.811,1.811,0,0,1,2.7,0L76.979,97.006l4.247-3.5L68.476,78a1.748,1.748,0,0,1,0-2.223L81.435,60.01,69.413,48.825a1.751,1.751,0,0,1,0-2.563L81.485,35.031,77.739,31,65.192,42.678a1.75,1.75,0,0,1-2.384,0L50.261,31l-3.746,4.028,2.351,2.187a1.751,1.751,0,0,1-2.385,2.563L42.85,36.4a1.751,1.751,0,0,1-.089-2.473l6.13-6.59a1.749,1.749,0,0,1,2.473-.089L64,39.006,76.636,27.249a1.725,1.725,0,0,1,1.256-.468,1.749,1.749,0,0,1,1.217.557l6.13,6.59A1.751,1.751,0,0,1,85.15,36.4Z" fill="url(#a)"/></svg>
