<svg height="512" viewBox="0 0 128 128" width="512" xmlns="http://www.w3.org/2000/svg" xmlns:xlink="http://www.w3.org/1999/xlink"><linearGradient id="a" gradientUnits="userSpaceOnUse" x1="99.228" x2="28.772" y1="93.247" y2="22.791"><stop offset="0" stop-color="#3ba9fd"/><stop offset="1" stop-color="#bae543"/></linearGradient><path d="m105.558 46.308a41.721 41.721 0 0 1 -1.4 10.726 1.75 1.75 0 0 1 -3.383-.9 38.06 38.06 0 1 0 -2.962 7.654 1.75 1.75 0 0 1 3.108 1.609 41.42 41.42 0 0 1 -30.671 21.988v7.485h11.25a1.75 1.75 0 0 1 1.75 1.75v9a1.75 1.75 0 0 1 -1.75 1.75h-11.25v14.13a1.75 1.75 0 0 1 -1.75 1.75h-9a1.751 1.751 0 0 1 -1.75-1.75v-3.187a1.75 1.75 0 1 1 3.5 0v1.437h5.5v-14.13a1.75 1.75 0 0 1 1.75-1.75h11.25v-5.5h-11.25a1.75 1.75 0 0 1 -1.75-1.75v-8.849c-.911.059-1.828.094-2.75.094s-1.84-.041-2.75-.1v8.855a1.751 1.751 0 0 1 -1.75 1.75h-11.25v5.5h11.25a1.751 1.751 0 0 1 1.75 1.75v5.38a1.75 1.75 0 0 1 -3.5 0v-3.63h-11.25a1.751 1.751 0 0 1 -1.75-1.75v-9a1.751 1.751 0 0 1 1.75-1.75h11.25v-7.476a41.558 41.558 0 1 1 47.808-41.086zm-62.967 19.626a1.75 1.75 0 1 0 -2.58 2.365 32.69 32.69 0 0 0 2.833 2.737 1.75 1.75 0 1 0 2.276-2.658 29.484 29.484 0 0 1 -2.529-2.444zm21.409 9.431a29.037 29.037 0 0 1 -13.919-3.556 1.75 1.75 0 1 0 -1.681 3.069 32.584 32.584 0 1 0 -12.467-12.084 1.75 1.75 0 0 0 3.015-1.777 29.053 29.053 0 1 1 25.052 14.348z" fill="url(#a)"/></svg>