<?xml version="1.0"?>
<svg xmlns="http://www.w3.org/2000/svg" xmlns:xlink="http://www.w3.org/1999/xlink" width="512" height="512" viewBox="0 0 128 128"><defs><linearGradient id="a" x1="109.163" y1="134.55" x2="18.838" y2="44.225" gradientUnits="userSpaceOnUse"><stop offset="0" stop-color="#3ba9fd"/><stop offset="1" stop-color="#bae543"/></linearGradient></defs><path d="M47.15,102.175a1.75,1.75,0,1,1-2.474,2.475L41.822,101.8A1.75,1.75,0,1,1,44.3,99.322Zm29.1,1.07L80,99.5a1.75,1.75,0,1,0-2.474-2.475l-3.75,3.75a1.75,1.75,0,0,0,2.474,2.475Zm46.514,13.149a4.752,4.752,0,1,1-8.521,4.208L98.73,89.244,65.237,122.737a1.748,1.748,0,0,1-2.474,0L49.636,109.61a1.749,1.749,0,1,1,2.474-2.474L64,119.025,97.093,85.932l-3.981-8.049L65.237,105.767a1.748,1.748,0,0,1-2.474,0L34.888,77.883l-3.981,8.049,8.706,8.707a1.749,1.749,0,1,1-2.474,2.474l-7.87-7.869-15.51,31.362A4.751,4.751,0,0,1,5.24,116.4l4.4-8.9a1.75,1.75,0,1,1,3.136,1.552l-4.4,8.9a1.262,1.262,0,0,0,.574,1.679,1.3,1.3,0,0,0,1.667-.566L37.462,64.784A9.694,9.694,0,0,1,41.616,60.5a6.215,6.215,0,0,0,2.664-2.749L57.663,30.69A13.831,13.831,0,0,1,53.3,27.115L16.352,101.824a1.75,1.75,0,1,1-3.137-1.552l8.962-18.121L5.263,65.237A1.749,1.749,0,0,1,6.5,62.25h5.01a11.313,11.313,0,0,1,8.048,3.332l1.54,1.541A7.826,7.826,0,0,0,26.67,69.43a11.192,11.192,0,0,1,1.73.137L51.2,23.474a13.75,13.75,0,1,1,25.608,0l5.48,11.08a1.75,1.75,0,1,1-3.137,1.552L74.7,27.115a13.831,13.831,0,0,1-4.364,3.575L83.719,57.744A6.221,6.221,0,0,0,86.384,60.5a9.686,9.686,0,0,1,4.155,4.29l26.839,54.267a1.278,1.278,0,0,0,1.684.564,1.259,1.259,0,0,0,.559-1.674L82.838,43.567a1.75,1.75,0,0,1,3.137-1.551L99.6,69.567a11.2,11.2,0,0,1,1.73-.137,7.849,7.849,0,0,0,3-.6,7.94,7.94,0,0,0,2.567-1.712l1.54-1.54a11.31,11.31,0,0,1,8.048-3.333h5.01a1.749,1.749,0,0,1,1.237,2.987L105.824,82.151ZM101.266,72.935l2.92,5.9L117.275,65.75h-.785a7.827,7.827,0,0,0-5.573,2.308l-1.54,1.539a11.372,11.372,0,0,1-8.047,3.333C101.308,72.93,101.287,72.935,101.266,72.935ZM23.814,78.84l2.921-5.905c-.022,0-.043,0-.065,0A11.3,11.3,0,0,1,18.623,69.6l-1.54-1.54A7.83,7.83,0,0,0,11.51,65.75h-.785ZM64,28.75A10.25,10.25,0,1,0,53.75,18.5,10.261,10.261,0,0,0,64,28.75ZM91.474,74.571,87.4,66.336a6.216,6.216,0,0,0-2.666-2.752,9.7,9.7,0,0,1-4.154-4.291L67.033,31.9a13.391,13.391,0,0,1-6.066,0L47.418,59.3a9.69,9.69,0,0,1-4.153,4.287,6.224,6.224,0,0,0-2.665,2.75l-4.074,8.238L64,102.055ZM64,26.25a7.75,7.75,0,1,1,7.75-7.75A7.759,7.759,0,0,1,64,26.25Zm0-3.5a4.25,4.25,0,1,0-4.25-4.25A4.255,4.255,0,0,0,64,22.75Z" fill="url(#a)"/></svg>
