<svg height="512" viewBox="0 0 128 128" width="512" xmlns="http://www.w3.org/2000/svg" xmlns:xlink="http://www.w3.org/1999/xlink"><linearGradient id="a" gradientUnits="userSpaceOnUse" x1="104.559" x2="23.441" y1="123.223" y2="42.104"><stop offset="0" stop-color="#3ba9fd"/><stop offset="1" stop-color="#bae543"/></linearGradient><path d="m31.608 73.032v-4.126a1.75 1.75 0 0 1 3.5 0v4.126a1.75 1.75 0 0 1 -3.5 0zm73.95 39.905v8.563a1.75 1.75 0 0 1 -1.75 1.75h-19.308a1.75 1.75 0 0 1 0-3.5h17.558v-5.5h-76.116v5.5h50.183a1.75 1.75 0 0 1 0 3.5h-51.933a1.75 1.75 0 0 1 -1.75-1.75v-8.563a22.853 22.853 0 0 1 4.965-14.191 19.337 19.337 0 0 0 4.2-12.009v-7.112a1.75 1.75 0 0 1 3.5 0v7.112a22.852 22.852 0 0 1 -4.964 14.191 19.336 19.336 0 0 0 -4.06 9.822h75.832a19.336 19.336 0 0 0 -4.06-9.822 22.852 22.852 0 0 1 -4.964-14.191v-27.878a28.892 28.892 0 0 0 -57.784 0v3.891a1.75 1.75 0 0 1 -3.5 0v-3.891a32.442 32.442 0 0 1 26.143-31.78v-10.016a7.777 7.777 0 1 1 3.5 2.674v6.856c.908-.077 1.823-.125 2.75-.125s1.842.048 2.75.125v-3.176a1.75 1.75 0 0 1 3.5 0v3.662a32.442 32.442 0 0 1 26.142 31.78v27.878a19.337 19.337 0 0 0 4.2 12.009 22.853 22.853 0 0 1 4.966 14.191zm-45.808-100.437a4.25 4.25 0 1 0 4.25-4.25 4.255 4.255 0 0 0 -4.25 4.25zm28.892 48.109a1.75 1.75 0 0 0 1.75-1.75 26.294 26.294 0 0 0 -1.392-8.476 1.75 1.75 0 1 0 -3.314 1.127 22.807 22.807 0 0 1 1.21 7.349 1.749 1.749 0 0 0 1.746 1.75z" fill="url(#a)"/></svg>