<?xml version="1.0"?>
<svg xmlns="http://www.w3.org/2000/svg" xmlns:xlink="http://www.w3.org/1999/xlink" width="512" height="512" viewBox="0 0 128 128"><defs><linearGradient id="a" x1="116.901" y1="116.901" x2="11.099" y2="11.099" gradientUnits="userSpaceOnUse"><stop offset="0" stop-color="#3ba9fd"/><stop offset="1" stop-color="#bae543"/></linearGradient></defs><path d="M11.215,36.351a18.3,18.3,0,0,0,2.715,3.243,1.75,1.75,0,1,1-2.4,2.542,21.785,21.785,0,0,1-3.236-3.864,1.75,1.75,0,0,1,2.926-1.921ZM13.75,26.4A12.654,12.654,0,1,1,26.4,39.058,12.668,12.668,0,0,1,13.75,26.4Zm3.5,0A9.154,9.154,0,1,0,26.4,17.25,9.164,9.164,0,0,0,17.25,26.4Zm71.692,0A12.654,12.654,0,1,1,101.6,39.058,12.668,12.668,0,0,1,88.942,26.4Zm3.5,0A9.154,9.154,0,1,0,101.6,17.25,9.165,9.165,0,0,0,92.442,26.4ZM26.4,88.942A12.654,12.654,0,1,0,31.673,113.1a1.75,1.75,0,0,0-1.462-3.181,9.047,9.047,0,0,1-3.807.83,9.154,9.154,0,1,1,9.154-9.154,9.05,9.05,0,0,1-.817,3.779,1.75,1.75,0,0,0,3.184,1.452,12.521,12.521,0,0,0,1.133-5.231A12.669,12.669,0,0,0,26.4,88.942ZM123.25,101.6a21.653,21.653,0,0,1-42.383,6.254H47.133A21.653,21.653,0,1,1,20.15,80.867V47.139a21.688,21.688,0,0,1-3.268-1.282,1.75,1.75,0,1,1,1.541-3.143,17.989,17.989,0,0,0,3.786,1.357c.045.008.089.021.133.032a18.133,18.133,0,1,0-13.627-13.6,1.75,1.75,0,0,1-3.41.788A21.655,21.655,0,0,1,47.133,20.15H80.867A21.653,21.653,0,1,1,107.85,47.133V80.867A21.689,21.689,0,0,1,123.25,101.6ZM83.442,26.4A18.154,18.154,0,1,0,101.6,8.25,18.175,18.175,0,0,0,83.442,26.4ZM47.876,23.65a20.924,20.924,0,0,1,0,5.5H80.123a20.924,20.924,0,0,1,0-5.5ZM32.65,47.135v33.73A21.739,21.739,0,0,1,47.135,95.35h33.73A21.739,21.739,0,0,1,95.35,80.865V73a1.75,1.75,0,0,1,3.5,0v7.123a20.924,20.924,0,0,1,5.5,0V47.876a20.924,20.924,0,0,1-5.5,0V64a1.75,1.75,0,0,1-3.5,0V47.135A21.739,21.739,0,0,1,80.865,32.65H47.135A21.739,21.739,0,0,1,32.65,47.135Zm-9,32.989a20.924,20.924,0,0,1,5.5,0V47.877a21.636,21.636,0,0,1-2.746.181,22.05,22.05,0,0,1-2.754-.178ZM44.558,101.6A18.154,18.154,0,1,0,26.4,119.75,18.175,18.175,0,0,0,44.558,101.6Zm35.566,2.754a20.924,20.924,0,0,1,0-5.5H47.877a20.924,20.924,0,0,1,0,5.5ZM119.75,101.6A18.154,18.154,0,1,0,101.6,119.75,18.175,18.175,0,0,0,119.75,101.6Zm-5.5,0A12.654,12.654,0,1,1,101.6,88.942,12.668,12.668,0,0,1,114.25,101.6Zm-3.5,0a9.154,9.154,0,1,0-9.154,9.154A9.164,9.164,0,0,0,110.75,101.6Z" fill="url(#a)"/></svg>
