<?xml version="1.0"?>
<svg xmlns="http://www.w3.org/2000/svg" xmlns:xlink="http://www.w3.org/1999/xlink" width="512" height="512" viewBox="0 0 128 128"><defs><linearGradient id="a" x1="105.877" y1="105.876" x2="22.124" y2="22.124" gradientUnits="userSpaceOnUse"><stop offset="0" stop-color="#3ba9fd"/><stop offset="1" stop-color="#bae543"/></linearGradient></defs><path d="M64,4.75A59.25,59.25,0,1,0,123.25,64,59.318,59.318,0,0,0,64,4.75Zm0,115A55.75,55.75,0,1,1,119.75,64,55.813,55.813,0,0,1,64,119.75ZM114.25,64A50.232,50.232,0,0,1,25.275,95.991a1.75,1.75,0,0,1,2.7-2.232A46.525,46.525,0,1,0,19.752,79.1a1.75,1.75,0,1,1-3.312,1.134A50.252,50.252,0,1,1,114.25,64ZM23.78,87.81a1.75,1.75,0,0,1-3.008,1.79c-.616-1.035-1.2-2.111-1.747-3.2a1.75,1.75,0,0,1,3.131-1.566C22.661,85.848,23.208,86.848,23.78,87.81Zm71.988-49.3A41.4,41.4,0,0,0,91.761,34.2a1.75,1.75,0,0,1,2.386-2.561,44.873,44.873,0,0,1,4.347,4.676,1.75,1.75,0,1,1-2.726,2.194ZM70.25,33.5V47.915h18a6.25,6.25,0,0,1,0,12.5H83.375a1.75,1.75,0,0,1,0-3.5H88.25a2.75,2.75,0,0,0,0-5.5H68.5a1.75,1.75,0,0,1-1.75-1.75V33.5a2.75,2.75,0,1,0-5.5,0V49.665a1.751,1.751,0,0,1-1.75,1.75H39.75A2.752,2.752,0,0,0,37,54.165c0,1.624,1.423,2.543,2.865,2.75H59.5a1.751,1.751,0,0,1,1.75,1.75V94.5A2.753,2.753,0,0,0,64,97.252c1.625,0,2.544-1.423,2.75-2.864V58.665a1.75,1.75,0,0,1,1.75-1.75h7.125a1.75,1.75,0,0,1,0,3.5H70.25V94.5a1.633,1.633,0,0,1-.013.21c-.43,3.557-2.995,6.04-6.237,6.04a6.257,6.257,0,0,1-6.25-6.25V60.415h-18a1.66,1.66,0,0,1-.211-.013c-3.556-.431-6.039-3-6.039-6.237a6.257,6.257,0,0,1,6.25-6.25h18V33.5a6.25,6.25,0,0,1,12.5,0Z" fill="url(#a)"/></svg>
