<svg height="512" viewBox="0 0 128 128" width="512" xmlns="http://www.w3.org/2000/svg" xmlns:xlink="http://www.w3.org/1999/xlink"><linearGradient id="a" gradientUnits="userSpaceOnUse" x1="105.896" x2="22.124" y1="105.896" y2="22.124"><stop offset="0" stop-color="#3ba9fd"/><stop offset="1" stop-color="#bae543"/></linearGradient><path d="m123.25 64a59.308 59.308 0 0 1 -20 44.389 1.75 1.75 0 0 1 -2.32-2.621 55.62 55.62 0 1 0 -6.969 5.257 1.75 1.75 0 0 1 1.884 2.95 59.255 59.255 0 1 1 27.405-49.975zm-99.12-27.644a1.751 1.751 0 0 0 -2.418.525 50.337 50.337 0 1 0 11.2-12.337 1.749 1.749 0 1 0 2.168 2.746 46.231 46.231 0 0 1 28.92-10.04 46.785 46.785 0 1 1 -39.345 21.525 1.75 1.75 0 0 0 -.525-2.419zm4.44-7.956c-.93.926-1.839 1.9-2.7 2.906a1.75 1.75 0 0 0 2.655 2.281c.8-.934 1.647-1.844 2.513-2.706a1.75 1.75 0 0 0 -2.468-2.481zm59.535 2.766a1.75 1.75 0 1 0 2.075-2.818 44.4 44.4 0 0 0 -7.58-4.496 1.75 1.75 0 1 0 -1.476 3.173 41 41 0 0 1 6.981 4.138zm-24.105 25.034c-3.55-4.459-9.76-10.164-18.283-10.164a17.969 17.969 0 0 0 0 35.938c8.521 0 14.73-5.7 18.281-10.162a32.81 32.81 0 0 0 5.026 5.13 1.75 1.75 0 0 0 2.2-2.721 30.713 30.713 0 0 1 -5.79-6.339 1.751 1.751 0 0 0 -2.872 0c-2.758 3.956-8.615 10.592-16.847 10.592a14.469 14.469 0 0 1 0-28.938c8.232 0 14.089 6.636 16.847 10.592a1.815 1.815 0 0 0 2.872 0c2.758-3.956 8.615-10.592 16.847-10.592a14.469 14.469 0 0 1 0 28.938 15.583 15.583 0 0 1 -4.809-.765 1.75 1.75 0 0 0 -1.077 3.33 19.1 19.1 0 0 0 5.886.935 17.969 17.969 0 0 0 0-35.938c-8.521-.005-14.731 5.7-18.281 10.164zm18.283 16.769c-5.614 0-10.012-4.982-12.134-7.951a1.751 1.751 0 0 1 0-2.036c2.122-2.969 6.52-7.951 12.134-7.951a8.969 8.969 0 0 1 0 17.938zm0-3.5a5.469 5.469 0 0 0 0-10.938c-3.52 0-6.632 3.074-8.522 5.469 1.89 2.4 5.002 5.469 8.522 5.469zm-24.432-6.487a1.751 1.751 0 0 1 0 2.036c-2.122 2.969-6.52 7.951-12.134 7.951a8.969 8.969 0 0 1 0-17.938c5.614 0 10.012 4.982 12.134 7.951zm-3.612 1.018c-1.89-2.4-5-5.469-8.522-5.469a5.469 5.469 0 0 0 0 10.938c3.52 0 6.632-3.069 8.522-5.469z" fill="url(#a)"/></svg>