<svg height="512" viewBox="0 0 128 128" width="512" xmlns="http://www.w3.org/2000/svg" xmlns:xlink="http://www.w3.org/1999/xlink"><linearGradient id="a" gradientUnits="userSpaceOnUse" x1="107.882" x2="20.118" y1="114.342" y2="26.577"><stop offset="0" stop-color="#3ba9fd"/><stop offset="1" stop-color="#bae543"/></linearGradient><path d="m64.122 19.116a1.75 1.75 0 1 1 2.956-1.873 44.113 44.113 0 0 1 2.247 3.974 1.75 1.75 0 1 1 -3.134 1.558 41.013 41.013 0 0 0 -2.069-3.659zm37.941 78.706-5.877 14.65 3.666 8.323a1.75 1.75 0 0 1 -1.6 2.455h-68.502a1.75 1.75 0 0 1 -1.6-2.455l3.666-8.323-5.88-14.651a46.931 46.931 0 0 1 0-35.624l5.723-14.238a6.244 6.244 0 0 1 3.174-11.624h3.591c-2.436-7.086-2.941-15.839-1.487-26.081a1.75 1.75 0 0 1 2.35-1.392 40.311 40.311 0 0 1 14.273 9.193 52.818 52.818 0 0 1 9.225-12.815 1.75 1.75 0 0 1 2.43 0 52.848 52.848 0 0 1 9.225 12.815 40.311 40.311 0 0 1 14.273-9.193 1.749 1.749 0 0 1 2.349 1.392 68.452 68.452 0 0 1 .467 17.2 1.749 1.749 0 0 1 -1.737 1.553 1.926 1.926 0 0 1 -.2-.011 1.75 1.75 0 0 1 -1.541-1.936 62.5 62.5 0 0 0 -.166-14.073 37.02 37.02 0 0 0 -11.879 8.492 34.331 34.331 0 0 1 2.744 13.021c0 .613-.022 1.226-.061 1.835h14.478a6.244 6.244 0 0 1 3.174 11.624l5.722 14.241a46.924 46.924 0 0 1 0 35.622zm-2.285-3.952h-71.557c.021.062.04.125.061.187.226.671.474 1.346.737 2.022.038.1.071.194.109.291h50.012a1.75 1.75 0 0 1 0 3.5h-48.611l3.818 9.518 5.7-5.7a1.753 1.753 0 0 1 2.475 0l6.342 6.335 6.334-6.334a1.8 1.8 0 0 1 2.474 0l6.328 6.336 6.333-6.333a1.8 1.8 0 0 1 2.474 0l6.334 6.334 6.342-6.335a1.753 1.753 0 0 1 2.475 0l5.7 5.7 3.818-9.518h-8.226a1.75 1.75 0 0 1 0-3.5h9.622c.04-.1.074-.2.113-.3.261-.671.507-1.341.732-2.007.021-.066.04-.132.061-.196zm-13.059 13.53-3.35 3.347h6.7zm-15.149 0-3.346 3.346h6.692zm-15.14 0-3.346 3.346h6.692zm-15.149 0-3.347 3.347h6.7zm59.519-17.03a43 43 0 0 0 -.245-21.62h-73.113a43 43 0 0 0 -.242 21.62zm-72.272-25.12h70.944c-.208-.584-.423-1.167-.656-1.748l-.3-.752h-69.03l-.231.575-.07.174c-.018.045-.034.093-.052.138-.214.536-.413 1.074-.605 1.613zm27.113-43.443a31.437 31.437 0 0 0 -2.891 12.693c0 .623.026 1.231.07 1.835h22.36c.044-.6.07-1.212.07-1.835a31.4 31.4 0 0 0 -2.891-12.682c-.016-.037-.031-.075-.045-.113a50.3 50.3 0 0 0 -8.314-12.66 50.243 50.243 0 0 0 -8.359 12.762zm-13.469 14.528h7.139c-.039-.609-.061-1.222-.061-1.835a34.371 34.371 0 0 1 2.74-13.027 37.038 37.038 0 0 0 -11.876-8.488c-1.072 9.287-.367 17.115 2.058 23.35zm-10.089 6.25a2.752 2.752 0 0 0 2.75 2.75h11.75a1.75 1.75 0 0 1 0 3.5h-11.5l-4.19 10.415h66.214l-4.185-10.415h-28a1.75 1.75 0 0 1 0-3.5h28.25a2.75 2.75 0 0 0 0-5.5h-58.339a2.752 2.752 0 0 0 -2.75 2.75zm63.484 77.165-2.422-5.5h-58.29l-2.422 5.5zm-42.317-70.915h4.5a1.75 1.75 0 0 0 0-3.5h-4.5a1.75 1.75 0 0 0 0 3.5zm-13.25 30.725a4.75 4.75 0 1 1 -4.75-4.75 4.756 4.756 0 0 1 4.75 4.75zm-3.5 0a1.25 1.25 0 1 0 -1.25 1.25 1.251 1.251 0 0 0 1.25-1.25zm22.667 0a4.75 4.75 0 1 1 -4.75-4.75 4.756 4.756 0 0 1 4.75 4.75zm-3.5 0a1.25 1.25 0 1 0 -1.25 1.25 1.251 1.251 0 0 0 1.25-1.25zm22.666 0a4.75 4.75 0 1 1 -4.75-4.75 4.755 4.755 0 0 1 4.75 4.75zm-3.5 0a1.25 1.25 0 1 0 -1.25 1.25 1.25 1.25 0 0 0 1.25-1.25zm22.667 0a4.75 4.75 0 1 1 -4.75-4.75 4.756 4.756 0 0 1 4.75 4.75zm-3.5 0a1.25 1.25 0 1 0 -1.25 1.25 1.251 1.251 0 0 0 1.25-1.25z" fill="url(#a)"/></svg>