<svg height="512" viewBox="0 0 128 128" width="512" xmlns="http://www.w3.org/2000/svg" xmlns:xlink="http://www.w3.org/1999/xlink"><linearGradient id="a" gradientUnits="userSpaceOnUse" x1="105.896" x2="22.104" y1="105.896" y2="22.104"><stop offset="0" stop-color="#3ba9fd"/><stop offset="1" stop-color="#bae543"/></linearGradient><path d="m18.167 28.516a1.748 1.748 0 0 1 0-2.474l2.843-2.842a1.75 1.75 0 0 1 2.475 2.474l-2.844 2.844a1.748 1.748 0 0 1 -2.474 0zm104.57 10.429-33.682-33.682a1.752 1.752 0 0 0 -1.238-.513h-47.634a1.751 1.751 0 0 0 -1.238.513l-13.153 13.154a1.749 1.749 0 0 0 2.474 2.474l12.642-12.641h46.185l32.657 32.658v46.184l-32.657 32.658h-46.185l-32.658-32.658v-46.184l7.329-7.329a1.75 1.75 0 1 0 -2.479-2.479l-7.837 7.845a1.751 1.751 0 0 0 -.513 1.238v47.634a1.751 1.751 0 0 0 .513 1.238l33.682 33.682a1.751 1.751 0 0 0 1.238.513h47.634a1.752 1.752 0 0 0 1.238-.513l33.682-33.682a1.751 1.751 0 0 0 .513-1.238v-47.634a1.751 1.751 0 0 0 -.513-1.238zm-41.923-24.695a1.75 1.75 0 0 0 0-3.5h-7.75a1.75 1.75 0 0 0 0 3.5zm-16.814 97.308a47.367 47.367 0 0 0 40.281-22.3 1.75 1.75 0 0 0 -2.963-1.864 43.771 43.771 0 1 1 3.992-8.072 1.749 1.749 0 1 0 3.279 1.221 47.559 47.559 0 1 0 -44.589 31.015zm0-9.5h.1a18.153 18.153 0 0 0 -.1-36.308 21.642 21.642 0 0 1 -15.929-36.3 38.075 38.075 0 0 0 -19.317 48.935 1.75 1.75 0 1 1 -3.24 1.323 41.569 41.569 0 0 1 37.326-57.236q.576-.032 1.16-.032h.032a41.55 41.55 0 0 1 1.128 83.085q-.576.032-1.16.032c-.012 0-.023 0-.035 0a41.5 41.5 0 0 1 -34.628-18.624 1.75 1.75 0 1 1 2.917-1.933 38.007 38.007 0 0 0 31.746 17.058zm15.929-3.507a38.05 38.05 0 0 0 -15.929-72.609c-.032 0-.064 0-.1 0a18.153 18.153 0 0 0 .1 36.308 21.642 21.642 0 0 1 15.929 36.3zm-8.179-54.451a7.75 7.75 0 1 1 -7.75-7.754 7.759 7.759 0 0 1 7.75 7.754zm-3.5 0a4.25 4.25 0 1 0 -4.25 4.246 4.255 4.255 0 0 0 4.25-4.246zm-4.25 47.554a7.75 7.75 0 1 1 7.75-7.75 7.759 7.759 0 0 1 -7.75 7.75zm0-3.5a4.25 4.25 0 1 0 -4.25-4.25 4.255 4.255 0 0 0 4.25 4.25z" fill="url(#a)"/></svg>