<?xml version="1.0"?>
<svg xmlns="http://www.w3.org/2000/svg" xmlns:xlink="http://www.w3.org/1999/xlink" width="512" height="512" viewBox="0 0 128 128"><defs><linearGradient id="a" x1="107.623" y1="111.942" x2="20.378" y2="24.697" gradientUnits="userSpaceOnUse"><stop offset="0" stop-color="#3ba9fd"/><stop offset="1" stop-color="#bae543"/></linearGradient></defs><path d="M14.648,62.149a1.75,1.75,0,1,1-2.791,2.113,27.773,27.773,0,0,1-2.765-4.486,1.75,1.75,0,1,1,3.142-1.544A24.147,24.147,0,0,0,14.648,62.149Zm108.577-20.8-1.88,10.9A27.648,27.648,0,0,1,94.03,75.26H83.472v6.269a19.685,19.685,0,0,1-.386,3.826,7.762,7.762,0,0,1,4.032,5.391l1.431,7.423a4.135,4.135,0,0,0,.856,1.854l3.817,4.728a7.718,7.718,0,0,1,1.578,3.407l2.509,13.011a1.75,1.75,0,0,1-1.388,2.049,1.722,1.722,0,0,1-.333.032,1.752,1.752,0,0,1-1.717-1.419l-2.51-13.02a4.194,4.194,0,0,0-.864-1.863l-3.809-4.719a7.63,7.63,0,0,1-1.578-3.407l-1.428-7.411a4.255,4.255,0,0,0-1.621-2.579,19.316,19.316,0,0,1-7.63,9.13C73.067,104.318,69.3,107.95,64,107.95s-9.065-3.631-10.43-9.984c-.412-.261-.817-.533-1.208-.825a1.75,1.75,0,0,1,2.092-2.807,15.916,15.916,0,0,0,7.8,3.065V60.155a10.279,10.279,0,0,0-5.96-9.309L48.028,47.04V63.661s0,.008,0,.013V73.5l0,.015,0,.014v8a16.055,16.055,0,0,0,1.713,7.2A1.75,1.75,0,1,1,46.617,90.3c-.243-.483-.459-.978-.661-1.48a4.252,4.252,0,0,0-1.638,2.591l-1.43,7.417a7.633,7.633,0,0,1-1.582,3.405l-3.8,4.713a4.209,4.209,0,0,0-.862,1.854l-2.512,13.028a1.75,1.75,0,0,1-1.716,1.419,1.722,1.722,0,0,1-.333-.032,1.749,1.749,0,0,1-1.387-2.049l2.51-13.02a7.718,7.718,0,0,1,1.575-3.4l3.811-4.721a4.146,4.146,0,0,0,.862-1.853l1.432-7.429a7.76,7.76,0,0,1,4.036-5.393,19.458,19.458,0,0,1-.39-3.827V75.26H33.97a27.849,27.849,0,0,1-17.017-5.837A1.75,1.75,0,0,1,19.1,66.66a24,24,0,0,0,14.869,5.1H44.528v-6.5A27.73,27.73,0,0,1,19.745,42.8H8.578L10.1,51.653q.071.405.153.8A1.752,1.752,0,0,1,8.9,54.525a1.8,1.8,0,0,1-.354.036,1.751,1.751,0,0,1-1.713-1.4c-.062-.3-.12-.608-.173-.915l-1.88-10.9A1.75,1.75,0,0,1,6.5,39.3H35.47a20.4,20.4,0,0,1,9.95,2.6A13.715,13.715,0,0,1,46.8,39.171a12.337,12.337,0,0,1-.959-2.957,9.338,9.338,0,0,0-1.876-4.041l-.74-.907a12.755,12.755,0,0,1-2.592-5.575l-1.53-7.95a1.75,1.75,0,1,1,3.436-.661l1.53,7.949a9.242,9.242,0,0,0,1.875,4.033l.744.912a12.941,12.941,0,0,1,2.222,4.152c1.444-5.032,3.977-8.722,7.364-10.87-.007-.139-.023-.275-.023-.416a7.705,7.705,0,0,1,1.668-4.788A15.3,15.3,0,0,1,54.254,6.376a1.75,1.75,0,1,1,3.492.248,11.852,11.852,0,0,0,2.91,9.235,7.655,7.655,0,0,1,6.688,0,11.856,11.856,0,0,0,2.911-9.235,1.749,1.749,0,1,1,3.49-.248,15.293,15.293,0,0,1-3.663,11.676A7.7,7.7,0,0,1,71.75,22.84c0,.14-.016.275-.023.414,3.388,2.145,5.922,5.832,7.368,10.859A12.873,12.873,0,0,1,81.3,29.987l.759-.933a9.26,9.26,0,0,0,1.87-4.027l1.528-7.947a1.75,1.75,0,1,1,3.437.661L87.369,25.69a12.77,12.77,0,0,1-2.587,5.568l-.756.928a9.319,9.319,0,0,0-1.867,4.036,12.331,12.331,0,0,1-.958,2.949A13.688,13.688,0,0,1,82.58,41.9a20.413,20.413,0,0,1,9.95-2.6H121.5a1.749,1.749,0,0,1,1.725,2.047ZM59.946,21.632a15.446,15.446,0,0,1,8.108,0,4.223,4.223,0,0,0-8.108,0Zm-7.405,12.61a13.638,13.638,0,0,1,5.737-1.271H69.722a13.644,13.644,0,0,1,5.746,1.275C73.937,29.568,70.729,24.59,64,24.59S54.071,29.566,52.541,34.242ZM44.528,61.755V46.721c0-.438.026-.869.066-1.3-.242-.126-.484-.252-.721-.39a16.9,16.9,0,0,0-8.4-2.234H23.324A24.223,24.223,0,0,0,44.528,61.755ZM64,53.465a13.754,13.754,0,0,1,6.246-5.8l9.177-4.228a10.261,10.261,0,0,0-9.7-6.968H58.278a10.261,10.261,0,0,0-9.7,6.968l9.177,4.228A13.754,13.754,0,0,1,64,53.465Zm6.169,46.51a18.954,18.954,0,0,1-12.338,0c1.044,2.441,2.9,4.475,6.169,4.475S69.125,102.417,70.169,99.975Zm9.8-18.446v-8l0-.019,0-.02V63.674c0-.005,0-.009,0-.013V59.5a1.75,1.75,0,1,1,3.5,0v2.255a24.223,24.223,0,0,0,21.2-18.955H92.53a16.9,16.9,0,0,0-8.408,2.238c-.235.135-.475.261-.716.386.04.428.066.859.066,1.3v4.7a1.75,1.75,0,1,1-3.5,0V47.04l-8.261,3.806a10.279,10.279,0,0,0-5.961,9.309V97.4a15.949,15.949,0,0,0,14.222-15.87ZM119.422,42.8H108.255A27.73,27.73,0,0,1,83.472,65.261v6.5H94.03A24.156,24.156,0,0,0,117.9,51.654Zm-43.7,29.47a1.749,1.749,0,0,0-1.75,1.75v7a1.75,1.75,0,0,0,3.5,0v-7A1.75,1.75,0,0,0,75.722,72.27Zm17.465-4.428a1.748,1.748,0,1,0-1.748,1.748A1.748,1.748,0,0,0,93.187,67.842Zm10.373-3.263a1.748,1.748,0,1,0-1.748,1.748A1.749,1.749,0,0,0,103.56,64.579ZM111.353,57a1.748,1.748,0,1,0-1.748,1.748A1.749,1.749,0,0,0,111.353,57ZM114.9,46.714a1.748,1.748,0,1,0-1.748,1.748A1.748,1.748,0,0,0,114.9,46.714ZM36.561,69.59a1.748,1.748,0,1,0-1.748-1.748A1.748,1.748,0,0,0,36.561,69.59ZM26.188,66.327a1.748,1.748,0,1,0-1.748-1.748A1.749,1.749,0,0,0,26.188,66.327ZM18.4,58.747A1.748,1.748,0,1,0,16.647,57,1.749,1.749,0,0,0,18.4,58.747ZM14.851,48.462A1.748,1.748,0,1,0,13.1,46.714,1.748,1.748,0,0,0,14.851,48.462Z" fill="url(#a)"/></svg>
