<?xml version="1.0"?>
<svg xmlns="http://www.w3.org/2000/svg" xmlns:xlink="http://www.w3.org/1999/xlink" width="512" height="512" viewBox="0 0 128 128"><defs><linearGradient id="a" x1="102.748" y1="107.176" x2="25.267" y2="29.695" gradientUnits="userSpaceOnUse"><stop offset="0" stop-color="#3ba9fd"/><stop offset="1" stop-color="#bae543"/></linearGradient></defs><path d="M71.568,14.13a7.568,7.568,0,0,0,.182-1.63,7.75,7.75,0,1,0-15.313,1.618A54.647,54.647,0,0,0,27.009,27.955a1.749,1.749,0,1,0,2.361,2.582,51.243,51.243,0,1,1-9.76,12.1,1.75,1.75,0,1,0-3.025-1.762A54.836,54.836,0,1,0,71.568,14.13Zm-11.622-.371a4.25,4.25,0,1,1,8.107,0c-1.34-.1-2.688-.165-4.053-.165S61.291,13.66,59.946,13.759ZM19.862,35.893c.81-1.1,1.671-2.177,2.562-3.213a1.75,1.75,0,1,1,2.654,2.283c-.835.97-1.642,1.982-2.4,3.008a1.75,1.75,0,0,1-2.817-2.078Zm80.921,11.6a42.083,42.083,0,1,0,3.117,6.793,1.75,1.75,0,0,1,3.3-1.172,45.928,45.928,0,1,1-3.377-7.357,1.75,1.75,0,0,1-3.039,1.736ZM95.752,86.058a36.151,36.151,0,0,0,2.96-6.91,1.75,1.75,0,0,1,3.344,1.036,39.836,39.836,0,0,1-3.247,7.579,1.75,1.75,0,0,1-1.531.9,1.75,1.75,0,0,1-1.526-2.6ZM39,95.173H52.92l9.843,9.843a1.75,1.75,0,0,0,2.474,0l9.843-9.843H89a1.749,1.749,0,0,0,1.75-1.75V79.5l9.843-9.843a1.75,1.75,0,0,0,0-2.474L90.75,57.343V43.423A1.749,1.749,0,0,0,89,41.673H75.08L65.237,31.83a1.748,1.748,0,0,0-2.474,0L52.92,41.673H39a1.749,1.749,0,0,0-1.75,1.75v13.92l-9.843,9.843a1.75,1.75,0,0,0,0,2.474L37.25,79.5v13.92A1.749,1.749,0,0,0,39,95.173Zm1.75-3.5V83l8.67,8.67Zm0-13.619V58.792L54.369,45.173H73.631L87.25,58.792V78.054L73.631,91.673H54.369ZM64,101.3l-6.131-6.131H70.131Zm23.25-9.631H78.58L87.25,83Zm9.631-23.25L90.75,74.554V62.292ZM87.25,45.173v8.67l-8.67-8.67ZM64,35.542l6.131,6.131H57.869ZM40.75,45.173h8.67l-8.67,8.67Zm-9.631,23.25,6.131-6.131V74.554ZM67.281,81.777a1.728,1.728,0,0,1-.419.051,1.75,1.75,0,0,1-.417-3.449,10.253,10.253,0,1,0-6.181-.411,1.751,1.751,0,0,1-1.282,3.258,13.75,13.75,0,1,1,8.3.551ZM71.75,68.423A7.75,7.75,0,1,0,64,76.173,7.759,7.759,0,0,0,71.75,68.423ZM64,72.673a4.25,4.25,0,1,1,4.25-4.25A4.254,4.254,0,0,1,64,72.673Z" fill="url(#a)"/></svg>
