<?xml version="1.0"?>
<svg xmlns="http://www.w3.org/2000/svg" xmlns:xlink="http://www.w3.org/1999/xlink" width="512" height="512" viewBox="0 0 128 128"><defs><linearGradient id="a" x1="105.867" y1="105.886" x2="22.114" y2="22.133" gradientUnits="userSpaceOnUse"><stop offset="0" stop-color="#3ba9fd"/><stop offset="1" stop-color="#bae543"/></linearGradient></defs><path d="M123.25,64a59.26,59.26,0,0,1-91.795,49.52,1.75,1.75,0,0,1,1.924-2.924,55.821,55.821,0,1,0-6.4-4.908,1.75,1.75,0,0,1-2.325,2.615A59.25,59.25,0,1,1,123.25,64ZM39.113,24.439a47.64,47.64,0,0,0-6.322,4.8L53.72,39.183l7.774-21.859a46.472,46.472,0,0,0-5.951.693,1.751,1.751,0,0,1-.631-3.444A50.322,50.322,0,1,1,37.244,21.48a1.75,1.75,0,1,1,1.869,2.959ZM17.329,61.492l21.854-7.771L29.23,32.781A46.421,46.421,0,0,0,17.329,61.492ZM39.183,74.279,17.319,66.5A46.555,46.555,0,0,0,29.232,95.213Zm22.313,36.4L53.72,88.817l-20.933,9.95A46.56,46.56,0,0,0,61.5,110.681ZM95.213,98.767,74.28,88.817,66.5,110.681A46.56,46.56,0,0,0,95.213,98.767Zm-6.4-45.046L110.681,61.5A46.555,46.555,0,0,0,98.768,32.787ZM66.5,17.319,74.28,39.183l20.933-9.95A46.56,46.56,0,0,0,66.5,17.319ZM33.4,33.4l9.778,20.571a1.749,1.749,0,0,1-.994,2.4L20.723,64l21.459,7.632a1.749,1.749,0,0,1,.994,2.4L33.4,94.6l20.57-9.778a1.749,1.749,0,0,1,2.4.994L64,107.277l7.631-21.459a1.749,1.749,0,0,1,2.4-.994L94.6,94.6,91.4,87.855a1.75,1.75,0,1,1,3.161-1.5l4.212,8.859A46.555,46.555,0,0,0,110.681,66.5L88.817,74.279l2.057,4.327a1.75,1.75,0,1,1-3.162,1.5l-2.888-6.077a1.749,1.749,0,0,1,.994-2.4L107.277,64,85.818,56.368a1.749,1.749,0,0,1-.994-2.4L94.6,33.4l-20.57,9.778a1.749,1.749,0,0,1-2.4-.994L64,20.723,56.369,42.182a1.749,1.749,0,0,1-2.4.994ZM43.622,21.742a1.738,1.738,0,0,0,.737-.163c1.386-.645,2.826-1.229,4.281-1.737a1.751,1.751,0,0,0-1.155-3.3c-1.563.546-3.111,1.175-4.6,1.868a1.75,1.75,0,0,0,.739,3.337Zm56.609,23.616a40.6,40.6,0,0,1,2.588,6.235,1.752,1.752,0,0,0,1.666,1.216,1.781,1.781,0,0,0,.535-.083,1.751,1.751,0,0,0,1.132-2.2,44.032,44.032,0,0,0-2.812-6.771,1.749,1.749,0,1,0-3.109,1.6Z" fill="url(#a)"/></svg>
