<svg height="512" viewBox="0 0 128 128" width="512" xmlns="http://www.w3.org/2000/svg" xmlns:xlink="http://www.w3.org/1999/xlink"><linearGradient id="a" gradientUnits="userSpaceOnUse" x1="103.559" x2="24.438" y1="100.601" y2="21.481"><stop offset="0" stop-color="#3ba9fd"/><stop offset="1" stop-color="#bae543"/></linearGradient><path d="m114.4 54.33c0 1.055-.036 2.2-.106 3.4a1.75 1.75 0 1 1 -3.494-.2c.066-1.131.1-2.206.1-3.193 0-17.115-9.879-46.08-46.9-46.08s-46.9 28.958-46.9 46.073c0 20.494 11.811 65.42 46.9 65.42 29.9 0 40.89-31.962 44.229-45.7a1.75 1.75 0 0 1 3.4.826c-3.529 14.543-15.25 48.374-47.629 48.374-17.031 0-30.924-9.621-40.179-27.822a99.761 99.761 0 0 1 -10.221-41.098c0-18.415 10.612-49.58 50.4-49.58s50.4 31.165 50.4 49.58zm-2.249 7.938a1.743 1.743 0 0 0 -1.971 1.5c-.187 1.363-.408 2.757-.657 4.142a1.75 1.75 0 1 0 3.445.619c.258-1.433.486-2.876.679-4.287a1.748 1.748 0 0 0 -1.492-1.974zm-13 25.705a1.75 1.75 0 0 0 2.279-.966c1.011-2.5 1.943-5.161 2.771-7.909a1.75 1.75 0 0 0 -3.352-1.01c-.8 2.646-1.693 5.206-2.664 7.606a1.751 1.751 0 0 0 .973 2.279zm-17.661-15.552a11.139 11.139 0 0 1 -1.94.176c-4.035 0-7.161-2.423-8.733-6.864a10.946 10.946 0 0 1 3.007-12.322c6.687-6.325 20.545-7.935 26.046-5.635a1.749 1.749 0 0 1 1.075 1.6c.094 9.141-10.271 21.424-19.455 23.045zm15.889-21.78c-5.132-1.245-16 .443-21.15 5.313a7.48 7.48 0 0 0 -2.113 8.611c1.257 3.55 3.469 4.989 6.763 4.41 7.103-1.258 15.662-10.983 16.5-18.334zm-45.608 5.313a7.48 7.48 0 0 1 2.113 8.611c-.833 2.353-2.121 3.8-3.828 4.314-2.495.742-6.017-.415-9.656-3.186a1.75 1.75 0 0 0 -2.12 2.786c3.561 2.709 7.08 4.122 10.174 4.122a9.032 9.032 0 0 0 2.6-.369c1.952-.582 4.6-2.181 6.127-6.5a10.946 10.946 0 0 0 -3.007-12.322c-6.688-6.325-20.548-7.934-26.046-5.635a1.749 1.749 0 0 0 -1.075 1.6c-.04 3.936 1.747 8.5 5.032 12.851a1.75 1.75 0 0 0 2.793-2.11 20.4 20.4 0 0 1 -4.26-9.473c5.136-1.243 16.003.44 21.153 5.311zm-15.32 30.046a1.75 1.75 0 0 1 3.433.685 6.866 6.866 0 0 0 4.659 7.778c4.082 1.565 6.359.611 9.512-.708a22.441 22.441 0 0 1 19.89 0c3.153 1.32 5.431 2.273 9.512.708a6.867 6.867 0 0 0 4.659-7.779 1.75 1.75 0 0 1 3.433-.684 10.394 10.394 0 0 1 -6.839 11.73 15.06 15.06 0 0 1 -4.038.985 21.87 21.87 0 0 1 -16.672 8.208 21.869 21.869 0 0 1 -16.675-8.209 15.059 15.059 0 0 1 -4.035-.981 10.394 10.394 0 0 1 -6.839-11.733zm15.249 12.332a17.386 17.386 0 0 0 24.59 0 28.238 28.238 0 0 1 -3.7-1.341 20.467 20.467 0 0 0 -8.59-2.057 20.467 20.467 0 0 0 -8.594 2.052 28.085 28.085 0 0 1 -3.706 1.346zm4.546-74.5a7.75 7.75 0 1 1 7.754 7.751 7.759 7.759 0 0 1 -7.75-7.75zm3.5 0a4.25 4.25 0 1 0 4.254-4.249 4.255 4.255 0 0 0 -4.25 4.25zm25.754 12.251a6.25 6.25 0 1 1 6.25-6.25 6.257 6.257 0 0 1 -6.25 6.25zm0-3.5a2.75 2.75 0 1 0 -2.75-2.75 2.752 2.752 0 0 0 2.75 2.75zm-43 3.5a6.25 6.25 0 1 1 6.25-6.25 6.257 6.257 0 0 1 -6.25 6.25zm0-3.5a2.75 2.75 0 1 0 -2.75-2.75 2.753 2.753 0 0 0 2.75 2.75z" fill="url(#a)"/></svg>