<svg height="512" viewBox="0 0 128 128" width="512" xmlns="http://www.w3.org/2000/svg" xmlns:xlink="http://www.w3.org/1999/xlink"><linearGradient id="a" gradientUnits="userSpaceOnUse" x1="104.806" x2="23.179" y1="111.903" y2="30.276"><stop offset="0" stop-color="#3ba9fd"/><stop offset="1" stop-color="#bae543"/></linearGradient><path d="m50.234 92.667v-4.167a1.75 1.75 0 0 1 3.5 0v4.167a1.75 1.75 0 0 1 -3.5 0zm21.5 5.9v-7a1.75 1.75 0 0 0 -3.5 0v7a1.75 1.75 0 0 0 3.5 0zm22.75 22.933a1.75 1.75 0 0 1 -1.75 1.75h-16.75a1.75 1.75 0 1 1 0-3.5h14.787a7.263 7.263 0 0 0 -7.037-5.5h-39.5a7.262 7.262 0 0 0 -7.036 5.5h29.953a1.75 1.75 0 1 1 0 3.5h-31.917a1.751 1.751 0 0 1 -1.75-1.75 10.762 10.762 0 0 1 10.75-10.75h6v-11.333a1.75 1.75 0 0 1 3.5 0v11.333h20.5v-44.074a4.813 4.813 0 0 1 -1.375.222 1.377 1.377 0 0 0 -1.375 1.375v4.25a4.625 4.625 0 0 1 -9.25 0v-10.375a1.25 1.25 0 0 0 -2.5 0v4.125a4.755 4.755 0 0 1 -4.75 4.75 4.7 4.7 0 0 1 -1.25-.188v10.915a1.75 1.75 0 0 1 -3.5 0v-34.48a1.751 1.751 0 0 1 1.75-1.75h10.25v-4.1a6.257 6.257 0 0 1 -4.5-6c0-5.417 4.628-11.969 4.826-12.246a1.814 1.814 0 0 1 2.849 0c.2.277 4.825 6.829 4.825 12.246a6.256 6.256 0 0 1 -4.5 6v4.1h10.25a1.75 1.75 0 0 1 1.75 1.75v63.48h6a10.762 10.762 0 0 1 10.75 10.75zm-30.5-83.328a2.753 2.753 0 0 0 2.75-2.75c0-2.486-1.467-5.682-2.75-7.942-1.282 2.26-2.75 5.456-2.75 7.942a2.754 2.754 0 0 0 2.75 2.75zm10.25 23.851v-13h-10.221c-.009 0-.019 0-.029 0s-.019 0-.029 0h-10.221v17.25a1.25 1.25 0 0 0 2.5 0v-4.125a4.75 4.75 0 1 1 9.5 0v10.375a1.125 1.125 0 0 0 2.25 0v-4.25a4.881 4.881 0 0 1 4.875-4.873 1.377 1.377 0 0 0 1.375-1.377zm29.558-17.5h-6a1.75 1.75 0 0 0 0 3.5h6a1.75 1.75 0 0 0 0-3.5zm-10.533-13.39a1.743 1.743 0 0 0 .873-.235l5.2-3a1.75 1.75 0 1 0 -1.75-3.031l-5.2 3a1.75 1.75 0 0 0 .877 3.266zm-13.251-12.6a1.748 1.748 0 0 0 2.39-.64l3-5.2a1.75 1.75 0 0 0 -3.031-1.75l-3 5.2a1.75 1.75 0 0 0 .641 2.392zm-16.024-4.283a1.75 1.75 0 0 0 1.75-1.75v-6a1.75 1.75 0 1 0 -3.5 0v6a1.751 1.751 0 0 0 1.75 1.75zm-18.409 3.66a1.75 1.75 0 1 0 3.031-1.75l-3-5.2a1.75 1.75 0 1 0 -3.031 1.75zm-16.919 10.015 5.2 3a1.75 1.75 0 0 0 1.75-3.031l-5.2-3a1.75 1.75 0 0 0 -1.75 3.031zm3.3 18.383a1.749 1.749 0 0 0 -1.75-1.75h-6a1.75 1.75 0 1 0 0 3.5h6a1.75 1.75 0 0 0 1.752-1.75zm4.3 16.019a1.751 1.751 0 0 0 -2.391-.641l-5.2 3a1.75 1.75 0 1 0 1.75 3.031l5.2-3a1.75 1.75 0 0 0 .644-2.39zm63.085 2.332-5.2-3a1.75 1.75 0 0 0 -1.741 3.031l5.2 3a1.75 1.75 0 0 0 1.75-3.031z" fill="url(#a)"/></svg>