<svg height="512" viewBox="0 0 128 128" width="512" xmlns="http://www.w3.org/2000/svg" xmlns:xlink="http://www.w3.org/1999/xlink"><linearGradient id="a" gradientUnits="userSpaceOnUse" x1="105.886" x2="22.133" y1="105.867" y2="22.114"><stop offset="0" stop-color="#3ba9fd"/><stop offset="1" stop-color="#bae543"/></linearGradient><path d="m123.25 64a59.208 59.208 0 1 1 -33.785-53.514 1.75 1.75 0 0 1 -1.506 3.16 55.242 55.242 0 0 0 -23.959-5.396 55.738 55.738 0 1 0 31.594 9.811 1.75 1.75 0 0 1 1.986-2.883 59.3 59.3 0 0 1 25.67 48.822zm-94.766 33.041a1.749 1.749 0 0 0 0 2.475 50.082 50.082 0 1 0 -11.457-17.66 1.75 1.75 0 0 0 3.273-1.246 46.873 46.873 0 1 1 10.66 16.431 1.748 1.748 0 0 0 -2.476 0zm-7.572-10.721a1.751 1.751 0 0 0 -.659 2.386 50.238 50.238 0 0 0 3.174 4.909 1.75 1.75 0 1 0 2.824-2.066 46.9 46.9 0 0 1 -2.953-4.57 1.752 1.752 0 0 0 -2.386-.659zm64.818 12.14a40.9 40.9 0 0 1 -6.846 3.477 1.749 1.749 0 1 0 1.283 3.255 44.284 44.284 0 0 0 7.435-3.775 1.75 1.75 0 1 0 -1.872-2.957zm-49.783-14.522a1.752 1.752 0 0 0 .513 1.238l6.364 6.364a1.749 1.749 0 0 0 2.475 0l8.974-8.975 3 3.006a6.25 6.25 0 1 0 8.839-8.839l-3.005-3 16.234-16.232.214 8.759a6.256 6.256 0 0 0 6.246 6.1h.154a6.25 6.25 0 0 0 6.095-6.4l-.674-27.629a1.748 1.748 0 0 0 -1.706-1.706l-27.621-.674a6.065 6.065 0 0 0 -4.464 1.722 6.249 6.249 0 0 0 4.159 10.773l8.758.214-5.233 5.235a1.749 1.749 0 0 0 2.474 2.474l8.121-8.122a1.749 1.749 0 0 0 -1.194-2.986l-12.841-.313a2.75 2.75 0 0 1 -1.829-4.741 2.808 2.808 0 0 1 1.963-.758l25.955.634.634 25.955a2.753 2.753 0 0 1 -2.683 2.817h-.069a2.754 2.754 0 0 1 -2.749-2.683l-.311-12.841a1.749 1.749 0 0 0 -2.986-1.194l-20.354 20.354a1.752 1.752 0 0 0 0 2.475l4.243 4.242a2.75 2.75 0 0 1 -3.889 3.89l-4.244-4.243a1.748 1.748 0 0 0 -2.474 0l-8.974 8.974-3.89-3.89 8.974-8.973a1.749 1.749 0 0 0 0-2.475l-4.246-4.243a2.75 2.75 0 0 1 0-3.889 2.816 2.816 0 0 1 3.889 0l4.247 4.242a1.75 1.75 0 0 0 2.474 0l5.733-5.733a1.75 1.75 0 0 0 -2.475-2.474l-4.495 4.495-3.005-3a6.25 6.25 0 1 0 -8.839 8.838l3 3.006-8.969 8.968a1.752 1.752 0 0 0 -.513 1.238z" fill="url(#a)"/></svg>