<svg height="512" viewBox="0 0 128 128" width="512" xmlns="http://www.w3.org/2000/svg" xmlns:xlink="http://www.w3.org/1999/xlink"><linearGradient id="a" gradientUnits="userSpaceOnUse" x1="105.876" x2="22.188" y1="105.876" y2="22.188"><stop offset="0" stop-color="#3ba9fd"/><stop offset="1" stop-color="#bae543"/></linearGradient><path d="m123.25 64a59.25 59.25 0 1 1 -104.74-37.965 1.75 1.75 0 1 1 2.69 2.244 55.766 55.766 0 1 0 6-6.161 1.75 1.75 0 1 1 -2.311-2.629 59.251 59.251 0 0 1 98.361 44.511zm-13.334-8.818c.282 1.47.5 2.977.634 4.479a1.75 1.75 0 0 0 1.741 1.589 1.5 1.5 0 0 0 .163-.008 1.75 1.75 0 0 0 1.582-1.9c-.15-1.614-.379-3.235-.682-4.816a1.75 1.75 0 0 0 -3.438.659zm-45.916-41.432a50.25 50.25 0 1 0 50.2 52.45 1.75 1.75 0 0 0 -3.5-.15 46.741 46.741 0 1 1 -2.326-16.756 1.75 1.75 0 1 0 3.322-1.1 50.206 50.206 0 0 0 -47.696-34.444zm28.982 83.059a1.748 1.748 0 0 0 1.194-.471 44.847 44.847 0 0 0 4.107-4.388 1.75 1.75 0 1 0 -2.71-2.215 41.36 41.36 0 0 1 -3.785 4.044 1.75 1.75 0 0 0 1.194 3.03zm-5.745-35.437a6.312 6.312 0 0 0 4.574-1.834 6.178 6.178 0 0 0 1.827-4.575l-.453-18.442a1.75 1.75 0 0 0 -1.706-1.706l-18.437-.453a6.19 6.19 0 0 0 -4.58 1.823 6.26 6.26 0 0 0 3.86 10.655l-6.069 6.068a21.554 21.554 0 0 0 -22.723 1.392 1.75 1.75 0 1 0 2.021 2.857 18.068 18.068 0 0 1 20.059-.571 1.747 1.747 0 0 0 2.166-.246l9.9-9.9a1.75 1.75 0 0 0 -1.2-2.988l-3.663-.084a2.754 2.754 0 0 1 -1.882-4.7 2.822 2.822 0 0 1 2.018-.8l16.775.413.412 16.781a2.7 2.7 0 0 1 -.8 2.009 2.857 2.857 0 0 1 -2.009.811 2.753 2.753 0 0 1 -2.69-2.689l-.084-3.664a1.751 1.751 0 0 0 -2.987-1.2l-9.9 9.9a1.749 1.749 0 0 0 -.246 2.166 18.153 18.153 0 1 1 -30.876.092 1.75 1.75 0 1 0 -2.98-1.836 21.653 21.653 0 1 0 37.529 1.1l6.068-6.068a6.245 6.245 0 0 0 6.076 5.689zm-31.228 23.262a12.65 12.65 0 1 1 8.946-3.7 12.613 12.613 0 0 1 -8.946 3.7zm-6.469-6.173a9.162 9.162 0 1 0 -2.675-6.471 9.163 9.163 0 0 0 2.675 6.471z" fill="url(#a)"/></svg>