<svg height="512" viewBox="0 0 128 128" width="512" xmlns="http://www.w3.org/2000/svg" xmlns:xlink="http://www.w3.org/1999/xlink"><linearGradient id="a" gradientUnits="userSpaceOnUse" x1="88.425" x2="37.805" y1="82.55" y2="31.93"><stop offset="0" stop-color="#3ba9fd"/><stop offset="1" stop-color="#bae543"/></linearGradient><path d="m92.75 4.75a1.751 1.751 0 0 0 -1.75 1.75v29.6a9.69 9.69 0 0 1 -19.38 0v-6.16a13.185 13.185 0 0 0 -26.37 0v11.121a7.734 7.734 0 0 0 -3 13.653v9.475h-5.25a1.751 1.751 0 0 0 -1.75 1.75v9a1.751 1.751 0 0 0 1.75 1.75h.9l-4.229 8.825a1.749 1.749 0 0 0 -.082 1.31l1.3 3.9a1.751 1.751 0 0 0 1.66 1.2 1.752 1.752 0 0 0 1.66-2.3l-.533-1.6h18.645l-9.321 27.945-2.866-8.593a1.75 1.75 0 0 0 -3.32 1.107l4.526 13.571a1.75 1.75 0 0 0 3.32 0l11.75-35.23a1.749 1.749 0 0 0 -.082-1.31l-4.228-8.825h.9a1.751 1.751 0 0 0 1.75-1.75v-9a1.751 1.751 0 0 0 -1.75-1.75h-5.25v-3.5a1.75 1.75 0 0 0 -3.5 0v3.5h-2.5v-7.945a7.742 7.742 0 0 0 3-15.183v-11.121a9.685 9.685 0 0 1 19.37 0v6.16a13.19 13.19 0 0 0 26.38 0v-29.6a1.751 1.751 0 0 0 -1.75-1.75zm-36.779 79.77h-17.942l3.754-7.831h10.434zm-.721-11.331h-16.5v-5.5h16.5zm-4-24.585a4.25 4.25 0 1 1 -4.25-4.25 4.255 4.255 0 0 1 4.25 4.246zm-10.36 54.576a1.746 1.746 0 0 1 -2.214-1.106l-1.6-4.806a1.75 1.75 0 0 1 3.321-1.108l1.6 4.806a1.75 1.75 0 0 1 -1.107 2.214zm5.9 0a1.749 1.749 0 0 1 -1.106-2.214l2.1-6.291a1.75 1.75 0 0 1 3.32 1.108l-2.104 6.291a1.746 1.746 0 0 1 -2.214 1.106z" fill="url(#a)"/></svg>