<?xml version="1.0"?>
<svg xmlns="http://www.w3.org/2000/svg" xmlns:xlink="http://www.w3.org/1999/xlink" width="512" height="512" viewBox="0 0 128 128"><defs><linearGradient id="a" x1="115.175" y1="107.05" x2="12.825" y2="4.7" gradientUnits="userSpaceOnUse"><stop offset="0" stop-color="#3ba9fd"/><stop offset="1" stop-color="#bae543"/></linearGradient></defs><path d="M119.227,71.2a24.72,24.72,0,0,1-.876,5.541,1.748,1.748,0,0,1-1.685,1.282,1.77,1.77,0,0,1-.469-.063,1.75,1.75,0,0,1-1.218-2.154,21.2,21.2,0,0,0,.751-4.756,1.75,1.75,0,0,1,3.5.15ZM56.25,17.69c0-5.286,5.807-11.672,6.47-12.383a1.806,1.806,0,0,1,2.56,0c.663.711,6.47,7.1,6.47,12.383a7.75,7.75,0,0,1-15.5,0Zm3.5,0a4.25,4.25,0,0,0,8.5,0c0-2.6-2.449-6.245-4.25-8.5C62.2,11.445,59.75,15.09,59.75,17.69Zm47,0c0-5.286,5.807-11.672,6.47-12.383a1.806,1.806,0,0,1,2.56,0c.663.711,6.47,7.1,6.47,12.383a7.75,7.75,0,0,1-15.5,0Zm3.5,0a4.25,4.25,0,0,0,8.5,0c0-2.6-2.449-6.245-4.25-8.5C112.7,11.445,110.25,15.09,110.25,17.69Zm13,14.435a1.75,1.75,0,0,1-1.75,1.75h-.75V47.12a1.745,1.745,0,0,1-1.5,1.725V62.417a1.75,1.75,0,0,1-3.5,0V48.87h-2.5V70.12A18.771,18.771,0,0,1,94.5,88.87H68.75v2.5H94.5a21.2,21.2,0,0,0,17.858-9.741,1.749,1.749,0,1,1,2.938,1.9A24.683,24.683,0,0,1,94.5,94.87H68.75v6.88H83.9a1.75,1.75,0,0,1,1.75,1.75v7.25h8.637a1.751,1.751,0,0,1,1.6,1.045l3.964,9a1.75,1.75,0,0,1-1.6,2.455H29.75a1.75,1.75,0,0,1-1.6-2.455l3.964-9a1.751,1.751,0,0,1,1.6-1.045H42.35V103.5a1.75,1.75,0,0,1,1.75-1.75h4.067a1.75,1.75,0,0,1,0,3.5H45.85v5.5h36.3v-5.5H56.333a1.75,1.75,0,0,1,0-3.5H59.25V94.87H33.5A24.778,24.778,0,0,1,8.75,70.12V48.845a1.745,1.745,0,0,1-1.5-1.725V33.875H6.5a1.75,1.75,0,0,1,0-3.5h14a1.75,1.75,0,0,1,0,3.5h-.75V47.12a1.745,1.745,0,0,1-1.5,1.725V70.12A15.267,15.267,0,0,0,33.5,85.37H59.25v-9.4H48.75A14.767,14.767,0,0,1,34,61.22V55.188a1.75,1.75,0,0,1,3.5,0V61.22A11.263,11.263,0,0,0,48.75,72.47h10.5v-2.5H48.75A8.76,8.76,0,0,1,40,61.22V48.87H34.255a1.75,1.75,0,0,1-1.75-1.75V33.875H31.75a1.75,1.75,0,0,1,0-3.5h14a1.75,1.75,0,0,1,0,3.5h-.745V47.12A1.745,1.745,0,0,1,43.5,48.845V61.22a5.256,5.256,0,0,0,5.25,5.25h10.5V48.85a1.745,1.745,0,0,1-1.5-1.725V33.875H57a1.75,1.75,0,0,1,0-3.5H71a1.75,1.75,0,0,1,0,3.5h-.75v13.25a1.745,1.745,0,0,1-1.5,1.725V66.47h10.5a5.256,5.256,0,0,0,5.25-5.25V48.845A1.745,1.745,0,0,1,83,47.12V33.875H82.25a1.75,1.75,0,0,1,0-3.5h14a1.75,1.75,0,0,1,0,3.5H95.5V47.12A1.744,1.744,0,0,1,94,48.844V61.22A14.767,14.767,0,0,1,79.25,75.97H68.75v9.4H94.5a15.267,15.267,0,0,0,15.25-15.25V48.845a1.745,1.745,0,0,1-1.5-1.725V33.875h-.75a1.75,1.75,0,0,1,0-3.5h14A1.75,1.75,0,0,1,123.25,32.125ZM36.005,45.37h5.5V33.875h-5.5Zm57.14,68.88H34.855l-2.422,5.5H95.567ZM86.5,33.875V45.37H92V33.875ZM68.75,69.97v2.5h10.5A11.263,11.263,0,0,0,90.5,61.22V48.87H88V61.22a8.76,8.76,0,0,1-8.75,8.75Zm-7.5-36.095v11.5h5.5v-11.5Zm-50.5,0V45.37h5.5V33.875Zm48.5,57.5v-2.5H33.5A18.771,18.771,0,0,1,14.75,70.12V48.87h-2.5V70.12A21.274,21.274,0,0,0,33.5,91.37Zm6,10.38V48.875h-2.5V101.75Zm52-67.875h-5.5V45.37h5.5ZM81.5,17.69c0-5.286,5.807-11.672,6.47-12.383a1.806,1.806,0,0,1,2.56,0C91.193,6.018,97,12.4,97,17.69a7.75,7.75,0,0,1-15.5,0Zm3.5,0a4.25,4.25,0,0,0,8.5,0c0-2.6-2.449-6.245-4.25-8.5C87.449,11.445,85,15.09,85,17.69Zm-79.25,0c0-5.286,5.807-11.672,6.47-12.383a1.806,1.806,0,0,1,2.56,0c.663.711,6.47,7.1,6.47,12.383a7.75,7.75,0,0,1-15.5,0Zm3.5,0a4.25,4.25,0,0,0,8.5,0c0-2.6-2.449-6.245-4.25-8.5C11.7,11.445,9.25,15.09,9.25,17.69Zm21.75,0C31,12.4,36.807,6.018,37.47,5.307a1.806,1.806,0,0,1,2.56,0c.663.711,6.47,7.1,6.47,12.383a7.75,7.75,0,0,1-15.5,0Zm3.5,0a4.25,4.25,0,0,0,8.5,0c0-2.6-2.449-6.245-4.25-8.5C36.949,11.445,34.5,15.09,34.5,17.69Z" fill="url(#a)"/></svg>
