<svg height="512" viewBox="0 0 128 128" width="512" xmlns="http://www.w3.org/2000/svg" xmlns:xlink="http://www.w3.org/1999/xlink"><linearGradient id="a" gradientUnits="userSpaceOnUse" x1="104.02" x2="23.98" y1="83.955" y2="3.914"><stop offset="0" stop-color="#3ba9fd"/><stop offset="1" stop-color="#bae543"/></linearGradient><path d="m56.75 6.5a1.751 1.751 0 0 1 1.75-1.75h4.75a1.75 1.75 0 0 1 0 3.5h-4.75a1.751 1.751 0 0 1 -1.75-1.75zm57.437 27.469-10.987 19.965a1.75 1.75 0 0 1 -3.067-1.688l9.564-17.371h-20.359l-19.815 72.964 20.494-37.225a1.75 1.75 0 1 1 3.066 1.686l-27.55 50.043a1.75 1.75 0 0 1 -3.066 0l-48.654-88.374a1.749 1.749 0 0 1 -.133-1.378l8.52-26.625a1.751 1.751 0 0 1 1.669-1.216h28.048a1.75 1.75 0 0 1 0 3.5h-6.217l-3.652 23.125h43.9l-3.648-23.125h-13.05a1.75 1.75 0 0 1 0-3.5h34.881a1.751 1.751 0 0 1 1.669 1.216l8.522 26.625a1.749 1.749 0 0 1 -.135 1.378zm-24.687-2.594h20.761l-7.4-23.125h-17.017zm-71.751 0h20.756l3.651-23.125h-17.01zm67.967 3.5h-43.427l5.2 19.153a1.75 1.75 0 1 1 -3.378.917l-5.45-20.07h-20.354l40.17 72.964-11.777-43.377a1.75 1.75 0 1 1 3.378-.917l13.922 51.278zm13.784 22.14a1.751 1.751 0 0 0 -2.377.689l-3 5.454a1.75 1.75 0 1 0 3.066 1.688l3-5.454a1.75 1.75 0 0 0 -.689-2.377zm-75.528-31.156a1.747 1.747 0 0 0 2.2-1.133l2.538-7.926a1.75 1.75 0 1 0 -3.333-1.067l-2.538 7.929a1.749 1.749 0 0 0 1.133 2.197z" fill="url(#a)"/></svg>