<svg height="512" viewBox="0 0 128 128" width="512" xmlns="http://www.w3.org/2000/svg" xmlns:xlink="http://www.w3.org/1999/xlink"><linearGradient id="a" gradientUnits="userSpaceOnUse" x1="120.559" x2="7.441" y1="116.204" y2="3.085"><stop offset="0" stop-color="#3ba9fd"/><stop offset="1" stop-color="#bae543"/></linearGradient><path d="m34.186 40.9-2.92-2.92a1.75 1.75 0 0 1 2.474-2.475l2.92 2.92a1.75 1.75 0 1 1 -2.474 2.475zm89.026 72.249a1.746 1.746 0 0 1 -1.08 1.271l-5.562 2.154-2.157 5.559a1.751 1.751 0 0 1 -1.271 1.079 1.771 1.771 0 0 1 -.361.038 1.751 1.751 0 0 1 -1.237-.513l-11.255-11.255a1.753 1.753 0 0 1 -.429-.7l-1.99-6.2-33.87-33.867-33.879 33.879-1.988 6.187a1.743 1.743 0 0 1 -.429.7l-11.255 11.256a1.747 1.747 0 0 1 -1.237.513 1.7 1.7 0 0 1 -.361-.038 1.746 1.746 0 0 1 -1.271-1.08l-2.154-5.562-5.559-2.157a1.75 1.75 0 0 1 -.6-2.869l11.255-11.255a1.753 1.753 0 0 1 .7-.429l6.2-1.99 10.554-10.56a1.75 1.75 0 1 1 2.475 2.474l-5.873 5.873a1.734 1.734 0 0 1 1.761 1.769l29.187-29.186-1.766-1.765-17.424 17.425a1.75 1.75 0 0 1 -2.475-2.474l17.424-17.426-18.265-18.265a1.75 1.75 0 0 1 2.48-2.475l54.158 54.163a1.734 1.734 0 0 1 1.768-1.763l-75.792-75.791-1.273.493-.493 1.271 9.332 9.332a1.749 1.749 0 1 1 -2.474 2.474l-8.242-8.239-2.49 6.415a1.75 1.75 0 0 1 -1.631 1.116h-.052a1.748 1.748 0 0 1 -1.611-1.215l-7.866-24.48a1.751 1.751 0 0 1 2.2-2.2l24.487 7.871a1.75 1.75 0 0 1 .1 3.3l-6.421 2.481 38.8 38.797 38.8-38.8-6.415-2.49a1.75 1.75 0 0 1 .1-3.3l24.48-7.863a1.751 1.751 0 0 1 2.2 2.2l-7.865 24.491a1.746 1.746 0 0 1 -1.614 1.213h-.052a1.749 1.749 0 0 1 -1.634-1.117l-2.488-6.419-32.78 32.78a1.749 1.749 0 0 1 -2.474-2.474l33.873-33.874-.493-1.273-1.271-.493-39.893 39.894 38.12 38.119 6.187 1.988a1.743 1.743 0 0 1 .7.429l11.255 11.255a1.747 1.747 0 0 1 .476 1.598zm-20.955-98.63 4.284 1.662c.032.012.064.023.095.037l2.988 1.159a1.75 1.75 0 0 1 1 1l2.853 7.368 5.315-16.537zm-86.076 6.94c.012-.032.023-.064.037-.1l1.159-2.987a1.75 1.75 0 0 1 1-1l7.368-2.853-16.537-5.31 5.311 16.534zm8.749 87.848 2.956-9.2-9.193 2.953-9.057 9.058 3.777 1.465a1.752 1.752 0 0 1 1 1l1.463 3.777zm93.433 2.819-9.056-9.056-9.2-2.956 2.953 9.193 9.058 9.057 1.465-3.777a1.752 1.752 0 0 1 1-1z" fill="url(#a)"/></svg>