<?xml version="1.0"?>
<svg xmlns="http://www.w3.org/2000/svg" xmlns:xlink="http://www.w3.org/1999/xlink" width="512" height="512" viewBox="0 0 128 128"><defs><linearGradient id="a" x1="99.848" y1="104.588" x2="27.45" y2="32.19" gradientUnits="userSpaceOnUse"><stop offset="0" stop-color="#3ba9fd"/><stop offset="1" stop-color="#bae543"/></linearGradient></defs><path d="M105.558,74v7.692a41.561,41.561,0,0,1-66.5,33.245,1.75,1.75,0,1,1,2.1-2.8,38.062,38.062,0,0,0,60.9-30.447V74a1.75,1.75,0,0,1,3.5,0Zm-72.48,29.884a1.75,1.75,0,1,0-2.842,2.044,42.072,42.072,0,0,0,3.256,3.983,1.75,1.75,0,1,0,2.569-2.377A38.442,38.442,0,0,1,33.078,103.884ZM95.846,34.5a9.67,9.67,0,0,0-6.211,2.251V26.711a9.707,9.707,0,0,0-15.924-7.459V14.461a9.712,9.712,0,0,0-19.423,0v4.79a9.707,9.707,0,0,0-15.923,7.46v7.042a9.707,9.707,0,0,0-15.923,7.461V81.692a41.138,41.138,0,0,0,4.237,18.3,1.749,1.749,0,1,0,3.14-1.543,37.693,37.693,0,0,1-3.877-16.756V41.214a6.212,6.212,0,1,1,12.423,0V61a1.75,1.75,0,0,0,3.5,0V26.711a6.212,6.212,0,0,1,12.423,0V55a1.75,1.75,0,0,0,3.5,0V14.461a6.212,6.212,0,0,1,12.423,0V55a1.75,1.75,0,0,0,3.5,0V26.711a6.212,6.212,0,0,1,12.424,0V73.25a1.75,1.75,0,0,0,3.5,0V44.215a6.212,6.212,0,0,1,12.423,0V65.667a1.75,1.75,0,0,0,3.5,0V44.215A9.722,9.722,0,0,0,95.846,34.5ZM86.175,109.47a35.811,35.811,0,0,0,6.467-6.728,1.75,1.75,0,1,0-2.819-2.075,32.35,32.35,0,0,1-5.834,6.07,1.75,1.75,0,1,0,2.186,2.733ZM52.3,93.75A18.771,18.771,0,0,1,71.05,75h6.867a1.75,1.75,0,0,0,0-3.5H71.05A22.275,22.275,0,0,0,48.8,93.75a1.75,1.75,0,0,0,3.5,0Z" fill="url(#a)"/></svg>
