<svg height="512" viewBox="0 0 128 128" width="512" xmlns="http://www.w3.org/2000/svg" xmlns:xlink="http://www.w3.org/1999/xlink"><linearGradient id="a" gradientUnits="userSpaceOnUse" x1="113.816" x2="14.184" y1="131.659" y2="32.027"><stop offset="0" stop-color="#3ba9fd"/><stop offset="1" stop-color="#bae543"/></linearGradient><path d="m123.016 122.375a1.752 1.752 0 0 1 -1.516.875h-115a1.75 1.75 0 0 1 -1.516-2.625l57.5-99.593a1.751 1.751 0 0 1 3.032 0l19.107 33.094a1.75 1.75 0 1 1 -3.032 1.75l-17.591-30.469-54.469 94.343h108.938l-32.9-56.984a1.75 1.75 0 1 1 3.032-1.75l34.415 59.609a1.753 1.753 0 0 1 0 1.75zm-80.891-11.625a1.75 1.75 0 0 0 0 3.5h4.5a1.75 1.75 0 0 0 0-3.5zm60.755 0-13.7-23.727c-3.761 4.022-13.48 13.018-25.18 13.018s-21.419-9-25.181-13.018l-13.699 23.727h10.13a1.75 1.75 0 0 1 0 3.5h-13.162a1.75 1.75 0 0 1 -1.515-2.625l41.911-72.593a1.751 1.751 0 0 1 3.032 0l41.911 72.593a1.75 1.75 0 0 1 -1.515 2.625h-51.912a1.75 1.75 0 0 1 0-3.5zm-15.723-26.709c-2.944-3.231-12.331-12.5-23.157-12.5s-20.213 9.269-23.157 12.5c2.944 3.231 12.331 12.5 23.157 12.5s20.213-9.269 23.157-12.5zm-5.042-9.258-18.115-31.376-18.115 31.376c4.744-3.476 11.07-6.742 18.115-6.742s13.371 3.266 18.115 6.742zm-14.266-12.71a1.75 1.75 0 1 0 3.031-1.75l-3.229-5.592a1.75 1.75 0 0 0 -3.031 1.75zm6.559-46.324a1.75 1.75 0 0 0 2.39-.641l4.465-7.733a1.75 1.75 0 1 0 -3.031-1.75l-4.465 7.733a1.751 1.751 0 0 0 .641 2.391zm4.6 6.387a1.75 1.75 0 0 0 2.394.625l12.641-7.4a1.749 1.749 0 1 0 -1.768-3.019l-12.641 7.4a1.751 1.751 0 0 0 -.625 2.394zm13.192 3.758-8.648 2.228a1.75 1.75 0 0 0 .873 3.389l8.648-2.229a1.749 1.749 0 1 0 -.873-3.388zm-41-10.786a1.75 1.75 0 1 0 3.031-1.75l-4.463-7.733a1.75 1.75 0 1 0 -3.031 1.75zm-17.246.248 12.641 7.4a1.75 1.75 0 1 0 1.768-3.02l-12.641-7.4a1.749 1.749 0 1 0 -1.768 3.019zm1.846 10.538a1.749 1.749 0 1 0 -.873 3.388l8.648 2.229a1.75 1.75 0 1 0 .873-3.389zm35.95 58.147a7.75 7.75 0 1 1 -7.75-7.75 7.759 7.759 0 0 1 7.75 7.75zm-3.5 0a4.25 4.25 0 1 0 -4.25 4.25 4.255 4.255 0 0 0 4.25-4.25z" fill="url(#a)"/></svg>