<?xml version="1.0"?>
<svg xmlns="http://www.w3.org/2000/svg" xmlns:xlink="http://www.w3.org/1999/xlink" width="512" height="512" viewBox="0 0 128 128"><defs><linearGradient id="a" x1="105.896" y1="105.896" x2="22.123" y2="22.123" gradientUnits="userSpaceOnUse"><stop offset="0" stop-color="#3ba9fd"/><stop offset="1" stop-color="#bae543"/></linearGradient></defs><path d="M106.217,103.078a1.751,1.751,0,0,1,.019,2.475c-.858.873-1.758,1.732-2.674,2.554a1.749,1.749,0,1,1-2.338-2.6c.862-.775,1.71-1.584,2.518-2.406A1.748,1.748,0,0,1,106.217,103.078ZM64,4.75A59.25,59.25,0,1,0,98.459,112.2a1.75,1.75,0,0,0-2.037-2.846A55.756,55.756,0,1,1,107.8,98.49a1.75,1.75,0,0,0,2.748,2.168A58.647,58.647,0,0,0,123.25,64,59.317,59.317,0,0,0,64,4.75ZM85.278,22.379a46.044,46.044,0,0,0-18.185-5.022L79.017,38.01h23.832A47.194,47.194,0,0,0,92.6,27.039a1.75,1.75,0,1,1,2.144-2.766,50.082,50.082,0,1,1-7.864-5.007,1.75,1.75,0,1,1-1.6,3.113ZM25.161,38.01H48.983L60.9,17.364A46.761,46.761,0,0,0,25.161,38.01ZM36,60.5,46.962,41.51H25.034Zm0,7L25.034,86.49H46.962ZM17.25,64a46.452,46.452,0,0,0,4.814,20.634L33.977,64,22.064,43.366A46.452,46.452,0,0,0,17.25,64ZM60.9,110.636,48.983,89.99H25.161A46.761,46.761,0,0,0,60.9,110.636ZM64,109,74.975,89.99H53.025Zm38.839-19.01H79.017L67.1,110.636A46.761,46.761,0,0,0,102.839,89.99Zm.127-3.5L92,67.5,81.038,86.49Zm2.988-43.155L94.023,64l11.913,20.634a46.773,46.773,0,0,0,.018-41.3ZM81.038,41.51,92,60.5l10.964-18.99ZM77,41.51H51L38.019,64,51,86.49H77L89.981,64Zm-2.021-3.5L64,19,53.025,38.01Zm28.663,16.514a40.78,40.78,0,0,1,1.032,6.9,1.749,1.749,0,0,0,1.744,1.64c.037,0,.074,0,.111,0a1.749,1.749,0,0,0,1.637-1.856,44.2,44.2,0,0,0-1.12-7.494,1.75,1.75,0,1,0-3.4.814Z" fill="url(#a)"/></svg>
