<?xml version="1.0"?>
<svg xmlns="http://www.w3.org/2000/svg" xmlns:xlink="http://www.w3.org/1999/xlink" width="512" height="512" viewBox="0 0 128 128"><defs><linearGradient id="a" x1="105.896" y1="105.896" x2="22.123" y2="22.123" gradientUnits="userSpaceOnUse"><stop offset="0" stop-color="#3ba9fd"/><stop offset="1" stop-color="#bae543"/></linearGradient></defs><path d="M123.25,64A58.929,58.929,0,0,1,113,97.315a1.75,1.75,0,0,1-2.893-1.97,55.807,55.807,0,1,0-5.6,6.954,1.75,1.75,0,1,1,2.543,2.4A58.71,58.71,0,0,1,64,123.25,59.25,59.25,0,1,1,123.25,64ZM20.884,86.266a1.749,1.749,0,0,0-.662,2.384,50.672,50.672,0,0,0,2.852,4.479,1.75,1.75,0,0,0,2.85-2.033,47.121,47.121,0,0,1-2.655-4.168A1.747,1.747,0,0,0,20.884,86.266ZM64,114.25A50.238,50.238,0,1,0,16.9,81.532a1.75,1.75,0,1,0,3.28-1.224A46.874,46.874,0,1,1,30.8,96.885a1.75,1.75,0,1,0-2.487,2.463A49.892,49.892,0,0,0,64,114.25Zm-35.469-71.9a1.747,1.747,0,0,0,1.461-.784A41.347,41.347,0,0,1,33.6,36.892a1.75,1.75,0,0,0-2.612-2.33,44.655,44.655,0,0,0-3.914,5.078,1.75,1.75,0,0,0,1.457,2.715ZM71.75,64A16.769,16.769,0,0,0,88.5,80.75a16.6,16.6,0,0,0,2.378-.168A16.831,16.831,0,0,0,105.25,64,41.255,41.255,0,0,0,49.04,25.556a6.329,6.329,0,0,0-3.65,3.727,6.24,6.24,0,0,0,8.095,7.956A28.511,28.511,0,0,1,64,35.25a29.078,29.078,0,0,1,4.386.333,1.75,1.75,0,1,0,.529-3.459A32.529,32.529,0,0,0,64,31.75a32.015,32.015,0,0,0-11.8,2.233,2.741,2.741,0,0,1-3.522-3.5,2.832,2.832,0,0,1,1.634-1.664A37.758,37.758,0,0,1,101.75,64,13.314,13.314,0,0,1,90.377,77.118a13.25,13.25,0,1,1,0-26.236,1.75,1.75,0,0,0,1.78-2.586A32.6,32.6,0,0,0,77.216,34.584a1.75,1.75,0,1,0-1.44,3.189,29.1,29.1,0,0,1,11.6,9.514A16.773,16.773,0,0,0,71.75,64ZM88.5,56.25A7.75,7.75,0,1,1,80.75,64,7.759,7.759,0,0,1,88.5,56.25Zm0,3.5A4.25,4.25,0,1,0,92.75,64,4.254,4.254,0,0,0,88.5,59.75ZM22.75,64A16.831,16.831,0,0,1,37.122,47.418,16.6,16.6,0,0,1,39.5,47.25a16.75,16.75,0,0,1,1.123,33.463A28.8,28.8,0,0,0,64,92.75a28.511,28.511,0,0,0,10.515-1.989,6.219,6.219,0,0,1,7.7,2.836h0a6.228,6.228,0,0,1,.39,5.119,6.329,6.329,0,0,1-3.65,3.727A41.255,41.255,0,0,1,22.75,64Zm3.5,0A37.758,37.758,0,0,0,77.687,99.185a2.832,2.832,0,0,0,1.634-1.664,2.741,2.741,0,0,0-3.522-3.5A32.245,32.245,0,0,1,35.843,79.7a1.75,1.75,0,0,1,1.78-2.586,13.25,13.25,0,1,0,0-26.236A13.314,13.314,0,0,0,26.25,64ZM39.5,71.75A7.75,7.75,0,1,1,47.25,64,7.759,7.759,0,0,1,39.5,71.75Zm0-3.5A4.25,4.25,0,1,0,35.25,64,4.254,4.254,0,0,0,39.5,68.25Z" fill="url(#a)"/></svg>
