<svg height="512" viewBox="0 0 128 128" width="512" xmlns="http://www.w3.org/2000/svg" xmlns:xlink="http://www.w3.org/1999/xlink"><linearGradient id="a" gradientUnits="userSpaceOnUse" x1="107.143" x2="46.328" y1="106.303" y2="45.489"><stop offset="0" stop-color="#3ba9fd"/><stop offset="1" stop-color="#bae543"/></linearGradient><path d="m123.242 6.618c-2.28 40.448-5.958 54.854-18.737 73.4a1.757 1.757 0 0 1 -1.284.75c-1.544.139-2.943.3-4.185.48q.553.126 1.117.244a1.75 1.75 0 0 1 .942 2.882 43.377 43.377 0 0 1 -3.251 3.273c-5.444 4.924-14.336 9.009-26.414 12.136a1.75 1.75 0 1 1 -.877-3.388c11.525-2.984 19.918-6.8 24.946-11.349.3-.272.6-.55.9-.837-1.884-.482-3.679-1.027-5.363-1.628a1.751 1.751 0 0 1 .083-3.324 62.972 62.972 0 0 1 10.967-1.9c11.353-16.686 15.08-30.327 17.318-65.165a49.418 49.418 0 0 1 -5.127 4.757 1.75 1.75 0 0 1 -2.207-2.717c6.072-4.933 7.787-8.341 7.858-8.484a1.749 1.749 0 0 1 3.317.87zm-58.988 91.255q-2.114.451-4.238.849a1.749 1.749 0 0 0 .32 3.469 1.707 1.707 0 0 0 .324-.03q2.165-.4 4.324-.864a1.75 1.75 0 1 0 -.73-3.424zm45.661-46.9a1.73 1.73 0 0 0 .431.053 1.75 1.75 0 0 0 1.695-1.32c.609-2.4 1.146-4.9 1.639-7.637a1.751 1.751 0 0 0 -3.446-.621c-.477 2.653-1 5.073-1.586 7.4a1.751 1.751 0 0 0 1.267 2.129zm-20.464 68.797h-75.186a80.412 80.412 0 0 1 10.605-13.58 286.99 286.99 0 0 0 29.363-2.927 1.75 1.75 0 0 0 -.533-3.463c-9.391 1.462-18.306 2.25-25.138 2.675 10.104-9.675 22.703-18.558 35.758-27.755 4.5-3.167 9.59-6.756 14.491-10.351a4.764 4.764 0 0 0 1.029-6.621 4.743 4.743 0 0 0 -6.653-1.037c-4.834 3.546-9.884 7.1-14.384 10.273-5.545 3.908-10.783 7.598-15.943 11.416a1.75 1.75 0 0 0 2.081 2.815c5.128-3.793 10.35-7.472 15.923-11.4 4.468-3.148 9.536-6.715 14.393-10.282a1.256 1.256 0 0 1 .937-.23 1.226 1.226 0 0 1 .812.5 1.255 1.255 0 0 1 -.266 1.745c-4.873 3.573-9.954 7.152-14.44 10.31-21.163 14.91-41.153 28.993-51.774 47.293a1.24 1.24 0 0 1 -1.75.417 1.356 1.356 0 0 1 -.339-1.8 83.351 83.351 0 0 1 11.684-15.341 1.807 1.807 0 0 0 .269-.277 162.888 162.888 0 0 1 17.683-15.723 1.75 1.75 0 1 0 -2.156-2.756 183.324 183.324 0 0 0 -14.437 12.418c3.256-20.018 11.408-34.612 25.368-45.358a49.382 49.382 0 0 0 .079 6.122 1.75 1.75 0 0 0 3.244.722 71.124 71.124 0 0 0 5.9-12.924 105.079 105.079 0 0 1 18.846-8.132c4.59-1.5 8.984-3.106 13.093-4.79 1.27 5.832 3.726 8.775 3.843 8.911a1.75 1.75 0 0 0 2.855-.271 65.8 65.8 0 0 0 5.941-14.547c2.462-1.317 4.8-2.683 6.947-4.066a1.75 1.75 0 0 0 -1.893-2.943c-2.226 1.431-4.661 2.846-7.238 4.207a1.748 1.748 0 0 0 -.987 1.143 65.867 65.867 0 0 1 -4.388 11.782 24.213 24.213 0 0 1 -2.013-6.92 1.75 1.75 0 0 0 -2.418-1.361c-4.584 1.953-9.573 3.813-14.829 5.527a107.828 107.828 0 0 0 -20.069 8.747 1.748 1.748 0 0 0 -.785.953q-1.186 3.48-2.562 6.574.057-1.032.152-2.194a1.75 1.75 0 0 0 -2.741-1.583c-17.773 12.312-27.46 29.67-30.474 54.581a86.4 86.4 0 0 0 -11.933 15.736 4.87 4.87 0 0 0 1.482 6.513 4.725 4.725 0 0 0 2.554.753h80a1.75 1.75 0 0 0 0-3.5z" fill="url(#a)"/></svg>