<?xml version="1.0"?>
<svg xmlns="http://www.w3.org/2000/svg" xmlns:xlink="http://www.w3.org/1999/xlink" width="512" height="512" viewBox="0 0 128 128"><defs><linearGradient id="a" x1="108.681" y1="109.552" x2="19.308" y2="20.179" gradientUnits="userSpaceOnUse"><stop offset="0" stop-color="#3ba9fd"/><stop offset="1" stop-color="#bae543"/></linearGradient></defs><path d="M49.479,65.832a26.324,26.324,0,0,1-3.371-2.684,1.75,1.75,0,1,1,2.4-2.55,23.088,23.088,0,0,0,2.923,2.328,1.75,1.75,0,1,1-1.949,2.906ZM37.85,87.2a6.257,6.257,0,0,0,6.25,6.25H57.75v9.024a20.4,20.4,0,0,0-6.148-1.618,1.751,1.751,0,0,0-.356,3.483,17.052,17.052,0,0,1,7.33,2.517,1.75,1.75,0,0,0,2.674-1.486V91.7a1.749,1.749,0,0,0-1.75-1.75H44.1a2.707,2.707,0,0,1-1.943-.807A2.748,2.748,0,0,1,44.1,84.45H59.5a1.749,1.749,0,0,0,1.75-1.75V68.08a1.751,1.751,0,0,0-1.427-1.72,22.647,22.647,0,0,1-3.768-1.052,1.749,1.749,0,1,0-1.231,3.275,26.138,26.138,0,0,0,2.926.907V80.95H44.1A6.257,6.257,0,0,0,37.85,87.2Zm59.54,33.536a6.065,6.065,0,0,1-4.95,2.514H92.2a6.252,6.252,0,0,1-5.869-4.354,8.252,8.252,0,0,0-16.081,2.6,1.749,1.749,0,0,1-1.75,1.75h-9a1.749,1.749,0,0,1-1.75-1.75,8.252,8.252,0,0,0-16.081-2.6A6.253,6.253,0,0,1,35.8,123.25h-.24a6.138,6.138,0,0,1-5.837-8.023,20.755,20.755,0,0,1,13.871-13.622,1.751,1.751,0,1,1,1,3.356A17.253,17.253,0,0,0,33.058,116.29a2.637,2.637,0,0,0,.379,2.383,2.6,2.6,0,0,0,2.123,1.077h.24a2.725,2.725,0,0,0,2.551-1.966A11.752,11.752,0,0,1,61.12,119.75h5.76a11.752,11.752,0,0,1,22.769-1.966A2.725,2.725,0,0,0,92.2,119.75h.24a2.6,2.6,0,0,0,2.122-1.077,2.633,2.633,0,0,0,.381-2.38,17.207,17.207,0,0,0-25.518-9.437,1.751,1.751,0,0,1-2.675-1.486V91.7a1.749,1.749,0,0,1,1.75-1.75H83.9a2.752,2.752,0,0,0,2.75-2.75,2.757,2.757,0,0,0-2.75-2.75H68.5a1.749,1.749,0,0,1-1.75-1.75V68.08a1.751,1.751,0,0,1,1.427-1.72A22.81,22.81,0,0,0,86.522,41.641a33.4,33.4,0,0,1-5.466,4.038,17.127,17.127,0,0,1-34.112.009A33.666,33.666,0,0,1,41.5,41.662a22.219,22.219,0,0,0,3.429,14.632,1.75,1.75,0,0,1-2.946,1.891A26.01,26.01,0,0,1,37.85,44.1a26.367,26.367,0,0,1,.608-5.573A33.364,33.364,0,0,1,30.5,18.316a33.764,33.764,0,0,1,.755-8.751,6.288,6.288,0,0,1,11-2.49,6.129,6.129,0,0,1,1.213,5.191A21.282,21.282,0,0,0,43.09,19.1a20.642,20.642,0,0,0,2.019,6.958,26.017,26.017,0,0,1,37.764,0A20.958,20.958,0,0,0,84.559,12.38a6.334,6.334,0,0,1,1.252-5.345A6.123,6.123,0,0,1,90.6,4.75a6.275,6.275,0,0,1,6.157,4.88,33.638,33.638,0,0,1,.774,7.19c0,.553-.013,1.105-.04,1.652a1.75,1.75,0,1,1-3.5-.172c.025-.49.036-.984.036-1.48a30.186,30.186,0,0,0-.692-6.44,2.732,2.732,0,0,0-2.653-2.13,2.658,2.658,0,0,0-2.151.983,2.857,2.857,0,0,0-.554,2.409,24.534,24.534,0,1,1-47.931-.134,2.645,2.645,0,0,0-.526-2.242,2.788,2.788,0,0,0-4.847,1.056A30.034,30.034,0,0,0,92.528,26.2a1.751,1.751,0,0,1,3.325,1.1,33.6,33.6,0,0,1-6.307,11.236,23.933,23.933,0,0,1,.454,2.7A26.343,26.343,0,0,1,70.25,69.49V80.95H83.9a6.257,6.257,0,0,1,6.25,6.25,6.257,6.257,0,0,1-6.25,6.25H70.25v9.028a20.705,20.705,0,0,1,28.028,12.751A6.092,6.092,0,0,1,97.39,120.736Zm-23.1-85.581a13.587,13.587,0,0,0-20.571-.012A20.665,20.665,0,0,0,61.561,37.7,20.887,20.887,0,0,0,74.291,35.155Zm-27.3-5.992a21.267,21.267,0,0,0,3.818,4,17.086,17.086,0,0,1,26.388.008c.272-.221.541-.447.8-.683a21.026,21.026,0,0,0,3-3.316,22.573,22.573,0,0,0-34.009-.012ZM77.167,47.647A33.568,33.568,0,0,1,63.992,50.34q-1.417,0-2.854-.119a33.256,33.256,0,0,1-10.3-2.558A13.775,13.775,0,0,0,64,57.75,13.565,13.565,0,0,0,77.167,47.647Z" fill="url(#a)"/></svg>
