<?xml version="1.0"?>
<svg xmlns="http://www.w3.org/2000/svg" xmlns:xlink="http://www.w3.org/1999/xlink" width="512" height="512" viewBox="0 0 128 128"><defs><linearGradient id="a" x1="105.876" y1="105.876" x2="22.126" y2="22.126" gradientUnits="userSpaceOnUse"><stop offset="0" stop-color="#3ba9fd"/><stop offset="1" stop-color="#bae543"/></linearGradient></defs><path d="M123.25,64A59.25,59.25,0,1,1,7.132,47.314a1.75,1.75,0,1,1,3.359.985,55.748,55.748,0,1,0,3.155-8.26,1.75,1.75,0,1,1-3.159-1.506A59.259,59.259,0,0,1,123.25,64ZM109.564,74.487c-.334,1.451-.742,2.9-1.214,4.313a1.75,1.75,0,0,0,3.319,1.111c.508-1.518.947-3.079,1.306-4.639a1.75,1.75,0,0,0-3.411-.785Zm4.557-6.859c.086-1.2.129-2.418.129-3.628a50.266,50.266,0,1,0-5.627,23.093,1.75,1.75,0,0,0-3.106-1.614A46.74,46.74,0,1,1,110.75,64c0,1.126-.041,2.263-.121,3.378a1.75,1.75,0,0,0,3.492.25Zm-22.447-35.9a1.75,1.75,0,0,0,.087,2.473,41.241,41.241,0,0,1,4.006,4.309,1.75,1.75,0,0,0,2.727-2.193,44.514,44.514,0,0,0-4.347-4.676A1.751,1.751,0,0,0,91.674,31.723ZM47.839,67.354a1.749,1.749,0,0,0-2.4.6A21.649,21.649,0,1,0,70.25,58.362v-8.58a6.25,6.25,0,0,0,10.26-4.8,6.184,6.184,0,0,0-1.944-4.528L65.207,27.732a1.754,1.754,0,0,0-2.414,0L49.437,40.449a6.194,6.194,0,0,0-1.951,4.528,6.259,6.259,0,0,0,10.264,4.8v8.583a21.41,21.41,0,0,0-5.556,2.582,1.75,1.75,0,0,0,1.912,2.932,17.955,17.955,0,0,1,5.787-2.463,1.75,1.75,0,0,0,1.357-1.7v-14a1.75,1.75,0,0,0-2.958-1.266l-2.65,2.53a2.837,2.837,0,0,1-3.806,0,2.749,2.749,0,0,1,.011-3.986L64,31.416,76.156,42.99a2.757,2.757,0,0,1,.006,3.984,2.753,2.753,0,0,1-3.8,0l-2.65-2.531A1.75,1.75,0,0,0,66.75,45.71v14a1.75,1.75,0,0,0,1.357,1.7,18.151,18.151,0,1,1-19.67,8.341A1.751,1.751,0,0,0,47.839,67.354ZM64,91.605A12.25,12.25,0,1,1,76.25,79.359,12.261,12.261,0,0,1,64,91.605Zm0-3.5a8.75,8.75,0,1,0-8.75-8.746A8.757,8.757,0,0,0,64,88.105Zm0-4a4.751,4.751,0,1,1,4.75-4.75A4.755,4.755,0,0,1,64,84.106Zm0-3.5a1.251,1.251,0,1,0-1.25-1.25A1.251,1.251,0,0,0,64,80.606Z" fill="url(#a)"/></svg>
