<?xml version="1.0"?>
<svg xmlns="http://www.w3.org/2000/svg" xmlns:xlink="http://www.w3.org/1999/xlink" width="512" height="512" viewBox="0 0 128 128"><defs><linearGradient id="a" x1="100.461" y1="103.975" x2="27.513" y2="31.026" gradientUnits="userSpaceOnUse"><stop offset="0" stop-color="#3ba9fd"/><stop offset="1" stop-color="#bae543"/></linearGradient></defs><path d="M114.272,47.96a1.746,1.746,0,0,1-1.314.981c-6.884,1.067-7.4,4.256-7.4,9l0,23.752a41.563,41.563,0,0,1-76.851,21.953,1.75,1.75,0,0,1,2.971-1.852,38.062,38.062,0,0,0,70.38-20.1l0-23.751c0-4.761.658-9.914,7.911-11.938-1.553-2.49-4.2-5.5-10.091-5.5-8.409,0-10.213,5.778-10.245,10.624V61a1.75,1.75,0,1,1-3.5,0V26.711a6.212,6.212,0,0,0-12.424,0V55a1.75,1.75,0,0,1-3.5,0V14.461a6.212,6.212,0,0,0-12.423,0V55a1.75,1.75,0,0,1-3.5,0V26.711a6.069,6.069,0,0,0-.071-.889c-.008-.054-.016-.107-.025-.16a6.116,6.116,0,0,0-.206-.857h0a6.21,6.21,0,0,0-12.121,1.906V61a1.75,1.75,0,0,1-3.5,0V51.125C38.332,46.28,36.527,40.5,28.119,40.5c-5.887,0-8.537,3.01-10.09,5.5,7.252,2.024,7.91,7.177,7.91,11.938V72.958q0,.051,0,.1v8.632a38.049,38.049,0,0,0,1.92,11.972,1.75,1.75,0,1,1-3.322,1.1,41.5,41.5,0,0,1-2.1-13.072v-8.53q0-.051,0-.1V57.941c0-4.744-.514-7.933-7.4-9A1.75,1.75,0,0,1,13.8,46.322c.114-.2.237-.413.37-.65C15.748,42.858,19.026,37,28.119,37c4.39,0,7.881,1.391,10.246,3.939V26.711a9.707,9.707,0,0,1,15.923-7.46v-4.79a9.712,9.712,0,0,1,19.423,0v4.791a9.707,9.707,0,0,1,15.924,7.459v14.23C92,38.394,95.49,37,99.88,37c9.094,0,12.372,5.855,13.947,8.669.133.237.256.455.37.65A1.748,1.748,0,0,1,114.272,47.96ZM30.192,81.25a1.75,1.75,0,0,0,1.75-1.75V72.305a1.75,1.75,0,0,0-3.5,0V79.5A1.751,1.751,0,0,0,30.192,81.25ZM68.9,71.073a24.027,24.027,0,0,0-4.9-.517c-14.741,0-26.356,14.3-26.844,14.906a1.752,1.752,0,0,0,0,2.187c.488.609,12.1,14.907,26.844,14.907s26.356-14.3,26.844-14.907a1.752,1.752,0,0,0,0-2.187,46.423,46.423,0,0,0-4.763-4.911,1.75,1.75,0,1,0-2.344,2.6c1.5,1.354,2.672,2.576,3.422,3.4-2.941,3.23-12.331,12.5-23.159,12.5s-20.214-9.268-23.157-12.5c2.943-3.232,12.331-12.5,23.157-12.5a20.546,20.546,0,0,1,4.182.443,1.75,1.75,0,1,0,.714-3.426Zm10.193,8.384a1.75,1.75,0,1,0,1.992-2.878,40.975,40.975,0,0,0-4.5-2.712,1.751,1.751,0,0,0-1.6,3.112A37.068,37.068,0,0,1,79.089,79.457Zm-7.339,7.1A7.75,7.75,0,1,1,64,78.806,7.759,7.759,0,0,1,71.75,86.556Zm-3.5,0A4.25,4.25,0,1,0,64,90.806,4.254,4.254,0,0,0,68.25,86.556Z" fill="url(#a)"/></svg>
