<?xml version="1.0"?>
<svg xmlns="http://www.w3.org/2000/svg" xmlns:xlink="http://www.w3.org/1999/xlink" width="512" height="512" viewBox="0 0 128 128"><defs><linearGradient id="a" x1="100.797" y1="106.173" x2="27.209" y2="32.586" gradientUnits="userSpaceOnUse"><stop offset="0" stop-color="#3ba9fd"/><stop offset="1" stop-color="#bae543"/></linearGradient></defs><path d="M39.122,92.828l.328-4.7a1.75,1.75,0,1,1,3.491.244l-.328,4.7A1.75,1.75,0,0,1,40.869,94.7c-.041,0-.082,0-.124,0A1.749,1.749,0,0,1,39.122,92.828Zm49.063-9.936,4.373,1.336a4.744,4.744,0,1,1-1.03,3.346l-3.082-.942,1.73,24.786c.022.235.024.52.024.792a11.062,11.062,0,0,1-22,1.633L65.72,97.482A1.74,1.74,0,0,0,64,96a1.754,1.754,0,0,0-1.72,1.483l-2.48,16.36a11.064,11.064,0,0,1-21.976-2.426l.841-12.045a1.75,1.75,0,1,1,3.491.244l-.841,12.046a7.562,7.562,0,0,0,7.545,8.088,7.546,7.546,0,0,0,7.48-6.436l2.479-16.357A5.209,5.209,0,0,1,62.25,92.8V90H61a1.75,1.75,0,0,1,0-3.5h1.25V84H61a1.75,1.75,0,0,1,0-3.5h1.25V78H61a1.75,1.75,0,0,1,0-3.5h1.25V72H61a1.75,1.75,0,0,1,0-3.5h1.25V66H61a1.75,1.75,0,0,1,0-3.5h1.25V60H61a1.75,1.75,0,0,1,0-3.5h1.25V54H61a1.75,1.75,0,0,1,0-3.5h1.25V47.981a21.485,21.485,0,0,1-7.142-1.841H33.19a7.25,7.25,0,1,0,0,14.5H43a1.749,1.749,0,0,1,1.746,1.872l-1.337,19.15a1.749,1.749,0,0,1-1.743,1.628c-.041,0-.083,0-.124,0a1.75,1.75,0,0,1-1.624-1.868L41.124,64.14H33.19a10.75,10.75,0,1,1,0-21.5H49.7A21.646,21.646,0,1,1,79.482,11.265a1.75,1.75,0,0,1-2.5,2.447,18.092,18.092,0,1,0,4.01,6.282,1.75,1.75,0,0,1,3.275-1.236,21.647,21.647,0,0,1-5.96,23.882H86.4l2.4-3.555a4.839,4.839,0,1,1,2.893,1.968L90.621,42.64H94.81a10.75,10.75,0,0,1,0,21.5H86.876Zm4.157-45.27a1.25,1.25,0,1,0-.83-1.561A1.252,1.252,0,0,0,92.342,37.622Zm2.648,49.57a1.25,1.25,0,1,0,1.25-1.25A1.25,1.25,0,0,0,94.99,87.192ZM84.861,85.537l-7.6-2.323a1.75,1.75,0,1,1,1.022-3.348L84.6,81.8,83.254,62.512A1.749,1.749,0,0,1,85,60.64h9.81a7.25,7.25,0,0,0,0-14.5H88.256l-2.906,4.3a1.75,1.75,0,1,1-2.9-1.959l1.582-2.34H72.892a21.485,21.485,0,0,1-7.142,1.841V50.5H67A1.75,1.75,0,0,1,67,54H65.75v2.5H67A1.75,1.75,0,0,1,67,60H65.75v2.5H67A1.75,1.75,0,0,1,67,66H65.75v2.5H67A1.75,1.75,0,0,1,67,72H65.75v2.5H67A1.75,1.75,0,0,1,67,78H65.75v2.5H67A1.75,1.75,0,0,1,67,84H65.75v2.5H67A1.75,1.75,0,0,1,67,90H65.75v2.806a5.127,5.127,0,0,1,1.668.964,5.226,5.226,0,0,1,1.762,3.187l2.481,16.36A7.562,7.562,0,0,0,86.7,112.21c0-.168,0-.344-.013-.511Zm-37.832,5.3c.042,0,.083,0,.124,0A1.749,1.749,0,0,0,48.9,89.21l.507-7.267a1.75,1.75,0,1,0-3.491-.244l-.507,7.267A1.749,1.749,0,0,0,47.029,90.834ZM49.986,55.06l5.749,7.911A1.75,1.75,0,1,1,52.9,65.029L47.157,57.12a4.585,4.585,0,0,1-.508.123,4.919,4.919,0,0,1-.672.047,4.752,4.752,0,0,1-3.786-7.608h0a4.75,4.75,0,0,1,8.5,2.2A4.694,4.694,0,0,1,49.986,55.06Zm-3.825-1.283a1.251,1.251,0,0,0,.577-2.237,1.25,1.25,0,1,0-.577,2.237Z" fill="url(#a)"/></svg>
