<svg height="512" viewBox="0 0 128 128" width="512" xmlns="http://www.w3.org/2000/svg" xmlns:xlink="http://www.w3.org/1999/xlink"><linearGradient id="a" gradientUnits="userSpaceOnUse" x1="98.171" x2="29.829" y1="99.303" y2="30.961"><stop offset="0" stop-color="#3ba9fd"/><stop offset="1" stop-color="#bae543"/></linearGradient><path d="m58.311 75.331-.175 3.927a1.75 1.75 0 0 1 -1.747 1.672h-.079a1.749 1.749 0 0 1 -1.67-1.83l.175-3.927a1.728 1.728 0 0 1 1.826-1.67 1.75 1.75 0 0 1 1.67 1.828zm-3.162-7.664a1.75 1.75 0 0 0 1.67 1.826h.08a1.75 1.75 0 0 0 1.747-1.672l.579-12.99a1.749 1.749 0 0 0 -1.85-1.826l-31.433 1.837v-9.164l28.224 1.822a1.751 1.751 0 0 0 1.558-2.733c-4.959-7.267-7.474-14.255-7.474-20.767a15.75 15.75 0 0 1 31.5 0c0 6.511-2.515 13.5-7.474 20.768a1.75 1.75 0 0 0 1.559 2.732l11.2-.724a1.75 1.75 0 0 0 -.226-3.493l-7.745.5c4.107-6.822 6.186-13.464 6.186-19.783a19.25 19.25 0 0 0 -38.5 0c0 6.319 2.079 12.962 6.185 19.785l-26.63-1.721a1.752 1.752 0 0 0 -1.863 1.747v12.889a1.751 1.751 0 0 0 1.852 1.747l31.348-1.83zm49.851-25.133a1.744 1.744 0 0 0 -1.309-.47l-10.786.7a1.75 1.75 0 1 0 .226 3.493l8.923-.576v9.164l-31.429-1.838a1.749 1.749 0 0 0 -1.85 1.826l2.895 64.917h-15.34l1.521-34.116a1.75 1.75 0 1 0 -3.5-.156l-1.6 35.944a1.75 1.75 0 0 0 1.749 1.828h19a1.75 1.75 0 0 0 1.748-1.828l-2.891-64.808 31.349 1.83a1.729 1.729 0 0 0 1.3-.474 1.748 1.748 0 0 0 .55-1.273v-12.886a1.751 1.751 0 0 0 -.556-1.277zm-39.958 63.247.268 6a1.748 1.748 0 0 0 1.746 1.672h.08a1.75 1.75 0 0 0 1.67-1.826l-.268-6a1.75 1.75 0 1 0 -3.5.156zm-1.042-92.031a10.261 10.261 0 0 0 -10.25 10.25 21.266 21.266 0 0 0 .348 3.759 1.75 1.75 0 1 0 3.444-.62 17.791 17.791 0 0 1 -.292-3.139 6.75 6.75 0 0 1 13.5 0c0 6.246-3.767 12.735-6.752 16.9a44.523 44.523 0 0 1 -4.42-7.486 1.75 1.75 0 1 0 -3.184 1.452 50.4 50.4 0 0 0 6.228 10.024 1.75 1.75 0 0 0 2.756 0c4.047-5.172 8.872-12.99 8.872-20.89a10.261 10.261 0 0 0 -10.25-10.25z" fill="url(#a)"/></svg>