<svg height="512" viewBox="0 0 128 128" width="512" xmlns="http://www.w3.org/2000/svg" xmlns:xlink="http://www.w3.org/1999/xlink"><linearGradient id="a" gradientUnits="userSpaceOnUse" x1="107.843" x2="20.157" y1="130.593" y2="42.907"><stop offset="0" stop-color="#3ba9fd"/><stop offset="1" stop-color="#bae543"/></linearGradient><path d="m31.287 69.957 1.8-3.6a1.75 1.75 0 0 1 3.131 1.565l-1.8 3.6a1.75 1.75 0 1 1 -3.131-1.564zm34.089-55.478a4.263 4.263 0 0 1 2.7 2.822 1.75 1.75 0 0 0 3.358-.99 7.768 7.768 0 0 0 -4.923-5.143 1.75 1.75 0 0 0 -1.137 3.311zm57.874 95.021a13.74 13.74 0 0 1 -25.982 6.25h-66.536a13.743 13.743 0 1 1 -12.346-19.994l10.225-20.449a1.75 1.75 0 1 1 3.131 1.564l-9.682 19.363a13.687 13.687 0 0 1 4.912 2.459l3.043-6.086v-.006l30.425-60.835a13.7 13.7 0 0 1 -4.913-2.459l-16.566 33.131a1.75 1.75 0 1 1 -3.131-1.565l17.116-34.23a13.75 13.75 0 1 1 22.108 0l34.56 69.113a13.619 13.619 0 0 1 5.49 1.187 1.751 1.751 0 0 1 -1.43 3.2 10.142 10.142 0 0 0 -4.174-.889 10.256 10.256 0 1 0 8.957 5.271 1.751 1.751 0 0 1 3.057-1.707 13.757 13.757 0 0 1 1.736 6.682zm-55.69-77.734 30.421 60.834v.006l3.043 6.086a13.687 13.687 0 0 1 4.912-2.459l-33.463-66.926a13.7 13.7 0 0 1 -4.913 2.459zm-3.56 52.907a10.25 10.25 0 1 0 -10.25-10.25 10.261 10.261 0 0 0 10.25 10.25zm13.75-10.25a13.738 13.738 0 0 1 -.227 2.425l13.971 10.606-21.244-42.483v17.22a13.753 13.753 0 0 1 7.5 12.232zm-13.75-41.95-2.75 5.5v22.977a13.789 13.789 0 0 1 5.5 0v-22.977zm9.049 52.276 24.259 18.417a13.79 13.79 0 0 1 1.138-1.809l-3.41-6.821-18.659-14.164a13.8 13.8 0 0 1 -3.328 4.377zm-15.299-39.778-21.244 42.483 13.971-10.606a13.638 13.638 0 0 1 7.273-14.657zm-7.02 47.377-14.361 10.9h55.262l-21.674-16.448a13.68 13.68 0 0 1 -18.334-6.424l-18.659 14.16-3.41 6.821a13.79 13.79 0 0 1 1.138 1.809l17.921-13.6a1.75 1.75 0 0 1 2.117 2.787zm3.02-73.848a10.25 10.25 0 1 0 10.25-10.25 10.261 10.261 0 0 0 -10.25 10.25zm-25 91a10.25 10.25 0 1 0 -10.25 10.25 10.261 10.261 0 0 0 10.25-10.25zm67.277 2.75a13.789 13.789 0 0 1 0-5.5h-64.054a13.789 13.789 0 0 1 0 5.5z" fill="url(#a)"/></svg>