<svg height="512" viewBox="0 0 128 128" width="512" xmlns="http://www.w3.org/2000/svg" xmlns:xlink="http://www.w3.org/1999/xlink"><linearGradient id="a" gradientUnits="userSpaceOnUse" x1="105.848" x2="22.095" y1="105.905" y2="22.152"><stop offset="0" stop-color="#3ba9fd"/><stop offset="1" stop-color="#bae543"/></linearGradient><path d="m123.25 64a59.258 59.258 0 0 1 -112.494 26.021 1.749 1.749 0 1 1 3.144-1.539 55.5 55.5 0 1 0 -2.946-7.282 1.75 1.75 0 0 1 -3.33 1.079 59.257 59.257 0 1 1 115.626-18.279zm-11.658 9.537a1.755 1.755 0 0 0 2.008-1.447 50.268 50.268 0 1 0 -2.152 8.464 1.749 1.749 0 1 0 -3.3-1.156 46.547 46.547 0 1 1 2-7.87 1.752 1.752 0 0 0 1.444 2.009zm-14.46-34.379a1.749 1.749 0 0 0 1.362-2.847 44.873 44.873 0 0 0 -4.347-4.676 1.75 1.75 0 0 0 -2.386 2.565 41.4 41.4 0 0 1 4.007 4.309 1.743 1.743 0 0 0 1.364.649zm-48.489 36.925a1.751 1.751 0 0 0 1.75-1.75v-5a1.75 1.75 0 0 0 -3.5 0v5a1.75 1.75 0 0 0 1.75 1.75zm19.957-1.472c-5.177 5.4-5.773 14.45-1.33 20.18a15.318 15.318 0 0 0 22.948 1.486l.85-.851a6.25 6.25 0 1 0 -8.839-8.838l-.746.746a2.912 2.912 0 0 1 -3.254.677 2.789 2.789 0 0 1 -1.578-2.049 2.827 2.827 0 0 1 .726-2.444l5.529-5.766a14.561 14.561 0 0 0 4.136-11.352 14.177 14.177 0 0 0 -14.155-12.972h-13.494v-5.989h5.542a6.25 6.25 0 0 0 0-12.5h-5.542v-1.439a6.25 6.25 0 0 0 -12.5 0v1.441h-5.542a6.25 6.25 0 0 0 0 12.5h5.542v14.809a1.75 1.75 0 0 0 3.5 0v-16.561a1.751 1.751 0 0 0 -1.75-1.75h-7.292a2.75 2.75 0 0 1 0-5.5h7.292a1.75 1.75 0 0 0 1.75-1.75v-3.189a2.75 2.75 0 0 1 5.5 0v3.191a1.749 1.749 0 0 0 1.75 1.75h7.292a2.75 2.75 0 0 1 0 5.5h-7.292a1.75 1.75 0 0 0 -1.75 1.75v9.489a1.75 1.75 0 0 0 1.75 1.75h15.244a10.692 10.692 0 0 1 10.669 9.79 11.064 11.064 0 0 1 -3.175 8.61l-5.528 5.77a6.3 6.3 0 1 0 9.106 8.714l.746-.746a2.75 2.75 0 1 1 3.89 3.889l-.851.85a11.819 11.819 0 0 1 -17.708-1.156c-3.364-4.338-2.864-11.488 1.09-15.612l5.53-5.767a5.227 5.227 0 0 0 -.518-7.712 5.338 5.338 0 0 0 -3.372-1.127h-15.123a1.749 1.749 0 0 0 -1.75 1.75v30.317a2.75 2.75 0 0 1 -5.5 0v-13.833a1.75 1.75 0 0 0 -3.5 0v13.833a6.25 6.25 0 0 0 12.5 0v-28.572h13.373a1.86 1.86 0 0 1 1.165.343 1.78 1.78 0 0 1 .678 1.275 1.7 1.7 0 0 1 -.478 1.3z" fill="url(#a)"/></svg>