<?xml version="1.0"?>
<svg xmlns="http://www.w3.org/2000/svg" xmlns:xlink="http://www.w3.org/1999/xlink" width="512" height="512" viewBox="0 0 128 128"><defs><linearGradient id="a" x1="105.896" y1="105.896" x2="22.124" y2="22.124" gradientUnits="userSpaceOnUse"><stop offset="0" stop-color="#3ba9fd"/><stop offset="1" stop-color="#bae543"/></linearGradient></defs><path d="M107.467,101.684a1.75,1.75,0,0,1,.1,2.473c-.914.991-1.873,1.962-2.848,2.885a1.75,1.75,0,0,1-2.405-2.542c.918-.869,1.82-1.783,2.681-2.716A1.749,1.749,0,0,1,107.467,101.684ZM64,4.75A59.25,59.25,0,1,0,98.776,111.976a1.75,1.75,0,1,0-2.056-2.832,55.752,55.752,0,1,1,12.043-11.907,1.75,1.75,0,0,0,2.809,2.089A59.255,59.255,0,0,0,64,4.75ZM20.255,42.99a1.749,1.749,0,0,0-2.3.9A49.788,49.788,0,0,0,13.75,64a50.29,50.29,0,1,0,8.7-28.237,1.749,1.749,0,1,0,2.891,1.971A46.73,46.73,0,1,1,17.25,64a46.3,46.3,0,0,1,3.906-18.7A1.751,1.751,0,0,0,20.255,42.99ZM19.75,64A44.25,44.25,0,1,1,64,108.25,44.3,44.3,0,0,1,19.75,64ZM64,25,54.756,41.011H73.244ZM52.735,44.511,41.483,64,52.735,83.489h22.53L86.517,64,75.265,44.511ZM88.538,60.5l9.231-15.989H79.306Zm0,7L79.306,83.489H97.769ZM64,103l9.244-16.011H54.756ZM39.462,67.5,30.231,83.489H48.694Zm9.232-22.989H30.231L39.462,60.5Zm-21.43,1.861a40.715,40.715,0,0,0,0,35.256L37.442,64Zm33.63,58.248L50.714,86.989H30.376A40.759,40.759,0,0,0,60.894,104.62Zm36.73-17.631H77.286L67.106,104.62A40.759,40.759,0,0,0,97.624,86.989ZM104.75,64a40.5,40.5,0,0,0-4.014-17.628L90.558,64l10.178,17.628A40.5,40.5,0,0,0,104.75,64ZM67.106,23.38l10.18,17.631H97.624A40.759,40.759,0,0,0,67.106,23.38ZM30.376,41.011H50.714L60.894,23.38A40.759,40.759,0,0,0,30.376,41.011Zm46.346-7.25a4.75,4.75,0,1,1,4.75,4.75A4.756,4.756,0,0,1,76.722,33.761Zm3.5,0a1.25,1.25,0,1,0,1.25-1.25A1.25,1.25,0,0,0,80.222,33.761ZM51.393,58.513A13.613,13.613,0,0,0,50.25,64,13.75,13.75,0,1,0,64,50.25a13.619,13.619,0,0,0-5.581,1.184,1.75,1.75,0,0,0,1.425,3.2A10.135,10.135,0,0,1,64,53.75,10.25,10.25,0,1,1,53.75,64a10.145,10.145,0,0,1,.85-4.086,1.75,1.75,0,0,0-3.207-1.4ZM67.434,69.218a1.749,1.749,0,0,0,2.466-.2A7.748,7.748,0,0,0,71.75,64a7.667,7.667,0,0,0-.082-1.124,1.75,1.75,0,1,0-3.463.505,4.246,4.246,0,0,1-.969,3.37A1.75,1.75,0,0,0,67.434,69.218ZM41.961,34.979a4.75,4.75,0,1,1,5.816,3.358,4.812,4.812,0,0,1-1.238.163,4.75,4.75,0,0,1-4.578-3.521Zm3.381-.906A1.25,1.25,0,1,0,46.553,32.5a1.27,1.27,0,0,0-.328.044,1.246,1.246,0,0,0-.883,1.529ZM24.49,62.76a4.748,4.748,0,1,1,4.6,5.979,4.812,4.812,0,0,1-1.238-.163A4.745,4.745,0,0,1,24.49,62.76Zm3.5,1.854a1.249,1.249,0,0,0,2.289-.3,1.25,1.25,0,0,0-1.831-1.406A1.251,1.251,0,0,0,27.994,64.614ZM51.278,94.239a4.75,4.75,0,1,1-4.75-4.75A4.756,4.756,0,0,1,51.278,94.239Zm-3.5,0a1.25,1.25,0,1,0-1.25,1.25A1.25,1.25,0,0,0,47.778,94.239Zm38.261-1.218a4.747,4.747,0,0,1-3.358,5.816,4.785,4.785,0,0,1-1.24.164,4.751,4.751,0,1,1,4.6-5.98Zm-3.381.906a1.246,1.246,0,0,0-1.2-.926,1.274,1.274,0,0,0-.328.043,1.25,1.25,0,1,0,1.53.883Zm20.379-32.291a4.751,4.751,0,0,1-4.1,7.126,4.78,4.78,0,0,1-1.24-.164,4.749,4.749,0,1,1,5.343-6.962Zm-3.031,1.75a1.251,1.251,0,0,0-1.085-.624,1.249,1.249,0,1,0,.627,2.332A1.251,1.251,0,0,0,100.006,63.386Z" fill="url(#a)"/></svg>
