<svg height="512" viewBox="0 0 128 128" width="512" xmlns="http://www.w3.org/2000/svg" xmlns:xlink="http://www.w3.org/1999/xlink"><linearGradient id="a" gradientUnits="userSpaceOnUse" x1="105.892" x2="22.124" y1="105.892" y2="22.123"><stop offset="0" stop-color="#3ba9fd"/><stop offset="1" stop-color="#bae543"/></linearGradient><path d="m117.877 88.689c-.578 1.259-1.213 2.521-1.887 3.752a1.75 1.75 0 1 1 -3.07-1.681c.635-1.158 1.232-2.347 1.775-3.531a1.75 1.75 0 1 1 3.182 1.46zm-53.877-83.939a59.25 59.25 0 1 0 48.143 93.8 1.75 1.75 0 0 0 -2.843-2.05 55.49 55.49 0 1 1 7.76-15.34 1.75 1.75 0 1 0 3.33 1.076 59.293 59.293 0 0 0 -56.39-77.486zm-29.979 23.405a1.75 1.75 0 0 0 -2.249-2.683 50.093 50.093 0 1 0 8.01-5.493 1.75 1.75 0 0 0 1.691 3.065 46.9 46.9 0 1 1 -7.452 5.111zm51.709 70.305a40.9 40.9 0 0 1 -6.846 3.477 1.749 1.749 0 1 0 1.283 3.255 44.284 44.284 0 0 0 7.435-3.775 1.75 1.75 0 1 0 -1.872-2.957zm-42.509-22.515 4.021-4.014-1.242-1.243a1.749 1.749 0 0 1 0-2.475l4.242-4.242a1.749 1.749 0 0 1 2.475 0l1.244 1.244 8.839-8.835-1.244-1.244a1.75 1.75 0 0 1 0-2.475l4.243-4.243a1.8 1.8 0 0 1 2.475 0l1.242 1.243 1.766-1.77-.121-.121a1.749 1.749 0 0 1 -.179-2.264l5.885-8.125a1.736 1.736 0 0 1 1.656-.707l9.946 1.368a1.748 1.748 0 0 1 1.5 1.495l1.368 9.946a1.75 1.75 0 1 1 -3.467.477l-1.187-8.632-7.603-1.044-4.394 6.067.295.3h.005v.006l6.35 6.35.006.005.3.3.664-.481a1.75 1.75 0 1 1 2.055 2.834l-1.861 1.359a1.752 1.752 0 0 1 -2.265-.179l-.118-.118-1.77 1.773 1.235 1.235a1.749 1.749 0 0 1 0 2.475l-4.243 4.243a1.749 1.749 0 0 1 -2.475 0l-1.234-1.238-8.83 8.834 1.235 1.235a1.752 1.752 0 0 1 0 2.475l-4.248 4.241a1.749 1.749 0 0 1 -2.475 0l-1.235-1.235-4.018 4.011a7.753 7.753 0 1 1 -8.838-8.832zm4.192 10.655a4.25 4.25 0 1 0 -3.006 1.245 4.225 4.225 0 0 0 3.006-1.245zm24.573-34.464 3.885 3.885 1.766-1.77-3.885-3.885zm-6.723 1.764 8.837 8.837 1.768-1.768-1.2-1.2-7.638-7.639zm-8.828 13.79 3.885 3.885 8.835-8.835-3.885-3.886zm-6.724 1.76 8.839 8.839 1.767-1.768-8.838-8.838zm.006 4.956-2.132 2.127a7.66 7.66 0 0 1 3.888 3.884l2.127-2.126z" fill="url(#a)"/></svg>