<?xml version="1.0"?>
<svg xmlns="http://www.w3.org/2000/svg" xmlns:xlink="http://www.w3.org/1999/xlink" width="512" height="512" viewBox="0 0 128 128"><defs><linearGradient id="a" x1="105.877" y1="105.877" x2="22.099" y2="22.099" gradientUnits="userSpaceOnUse"><stop offset="0" stop-color="#3ba9fd"/><stop offset="1" stop-color="#bae543"/></linearGradient></defs><path d="M123.25,64A59.25,59.25,0,1,1,31.158,14.677,1.75,1.75,0,0,1,33.1,17.589,55.509,55.509,0,1,0,51.389,9.682,1.75,1.75,0,0,1,50.6,6.271,59.3,59.3,0,0,1,123.25,64ZM38.032,14.435a1.733,1.733,0,0,0,.789-.19c1.641-.831,3.342-1.589,5.055-2.253a1.749,1.749,0,1,0-1.263-3.263c-1.822.705-3.63,1.511-5.374,2.4a1.75,1.75,0,0,0,.793,3.311Zm2.592,94.04a50.406,50.406,0,1,0-7.512-4.864,1.75,1.75,0,0,0,2.155-2.757,46.563,46.563,0,1,1,6.989,4.525,1.75,1.75,0,1,0-1.632,3.1ZM93.588,36.009A1.75,1.75,0,0,0,96.129,33.6a44.736,44.736,0,0,0-5.4-4.85,1.75,1.75,0,1,0-2.118,2.787A41.261,41.261,0,0,1,93.588,36.009ZM78.367,41.022A13.22,13.22,0,0,0,62,39.151a13.187,13.187,0,0,0-14,0,13.24,13.24,0,0,0-7.87-1.983A13.461,13.461,0,0,0,27.75,50.738V53.33a6.25,6.25,0,0,0,12.5,0v-2.8a.866.866,0,0,1,.667-.889.734.734,0,0,1,.585.188.745.745,0,0,1,.248.557v8.485a1.75,1.75,0,0,0,3.5,0V50.39a4.25,4.25,0,0,0-4.684-4.228,4.367,4.367,0,0,0-3.816,4.372v2.8a2.75,2.75,0,0,1-5.5,0V50.738a9.956,9.956,0,0,1,9.106-10.077,9.664,9.664,0,0,1,6.578,2.007,1.752,1.752,0,0,0,2.132,0,9.7,9.7,0,0,1,11.868,0,1.752,1.752,0,0,0,2.132,0A9.743,9.743,0,0,1,78.75,50.39V74.11a7.759,7.759,0,0,0,7.75,7.75H94a2.75,2.75,0,0,1,0,5.5H83.5A10.261,10.261,0,0,1,73.25,77.11V50.39a4.25,4.25,0,0,0-4.684-4.228,4.367,4.367,0,0,0-3.816,4.372V73.09h-5.5V50.39a4.25,4.25,0,0,0-4.684-4.228,4.367,4.367,0,0,0-3.816,4.372V73.09h-5.5V67.125a1.75,1.75,0,0,0-3.5,0V74.84a1.75,1.75,0,0,0,1.75,1.75h9a1.75,1.75,0,0,0,1.75-1.75V50.534a.866.866,0,0,1,.667-.889.73.73,0,0,1,.585.188.745.745,0,0,1,.248.557V74.84a1.75,1.75,0,0,0,1.75,1.75h9a1.749,1.749,0,0,0,1.75-1.75V50.534a.866.866,0,0,1,.667-.889.734.734,0,0,1,.585.188.745.745,0,0,1,.248.557V77.11A13.765,13.765,0,0,0,83.5,90.86H94a6.25,6.25,0,0,0,0-12.5H86.5a4.254,4.254,0,0,1-4.25-4.25V50.39A13.163,13.163,0,0,0,78.367,41.022Z" fill="url(#a)"/></svg>
