<?xml version="1.0"?>
<svg xmlns="http://www.w3.org/2000/svg" xmlns:xlink="http://www.w3.org/1999/xlink" width="512" height="512" viewBox="0 0 128 128"><defs><linearGradient id="a" x1="105.88" y1="105.873" x2="22.127" y2="22.12" gradientUnits="userSpaceOnUse"><stop offset="0" stop-color="#3ba9fd"/><stop offset="1" stop-color="#bae543"/></linearGradient></defs><path d="M123.25,64a59.225,59.225,0,1,1-8.118-29.953,1.75,1.75,0,0,1-3.018,1.771,55.466,55.466,0,1,0,3.738,7.659,1.75,1.75,0,1,1,3.253-1.289A58.976,58.976,0,0,1,123.25,64ZM27.857,93.62a1.75,1.75,0,0,0-2.7,2.221,50.02,50.02,0,1,0-9.2-17.116A1.75,1.75,0,1,0,19.3,77.7,46.87,46.87,0,1,1,27.857,93.62ZM19.535,83.444a1.751,1.751,0,0,0-.815,2.337c.68,1.409,1.437,2.8,2.248,4.146a1.75,1.75,0,1,0,3-1.811c-.755-1.249-1.459-2.546-2.091-3.856A1.751,1.751,0,0,0,19.535,83.444Zm77.724,9.715a44.791,44.791,0,0,0,4.291-5.768,1.751,1.751,0,0,0-2.969-1.856,41.246,41.246,0,0,1-3.953,5.316,1.75,1.75,0,1,0,2.631,2.308ZM83.644,58.2A1.753,1.753,0,0,0,85.8,57,22.977,22.977,0,1,0,41.555,44.6a6.089,6.089,0,0,0-.225,1.644,6.262,6.262,0,0,0,12.312,1.583,10.414,10.414,0,0,1,10.47-7.564,10.469,10.469,0,0,1,3.434,20.2,10.308,10.308,0,0,1-3.89.733h-.013a6.205,6.205,0,0,0-6.193,6.194v9.993H55.7a6.25,6.25,0,0,0,0,12.5h1.75V94a6.25,6.25,0,0,0,12.5,0V89.878H71.7a6.25,6.25,0,0,0,0-12.5H69.95v-4.55A23.091,23.091,0,0,0,81.287,65.5a1.75,1.75,0,1,0-2.678-2.254,19.535,19.535,0,0,1-10.778,6.5,1.751,1.751,0,0,0-1.381,1.711v7.667a1.749,1.749,0,0,0,1.75,1.75h3.5a2.75,2.75,0,0,1,0,5.5H68.2a1.749,1.749,0,0,0-1.75,1.75V94a2.75,2.75,0,0,1-5.5,0V88.128a1.75,1.75,0,0,0-1.75-1.75H55.7a2.75,2.75,0,0,1,0-5.5h3.5a1.75,1.75,0,0,0,1.75-1.75V67.385a2.677,2.677,0,0,1,.794-1.9,2.707,2.707,0,0,1,1.95-.79H63.7a13.714,13.714,0,0,0,5.145-.983A13.969,13.969,0,1,0,50.279,46.854,2.822,2.822,0,0,1,47.6,48.971a2.787,2.787,0,0,1-2.77-2.73,2.619,2.619,0,0,1,.1-.706,19.477,19.477,0,1,1,37.51,10.508A1.749,1.749,0,0,0,83.644,58.2Z" fill="url(#a)"/></svg>
