<svg height="512" viewBox="0 0 128 128" width="512" xmlns="http://www.w3.org/2000/svg" xmlns:xlink="http://www.w3.org/1999/xlink"><linearGradient id="a" gradientUnits="userSpaceOnUse" x1="105.889" x2="22.136" y1="105.864" y2="22.111"><stop offset="0" stop-color="#3ba9fd"/><stop offset="1" stop-color="#bae543"/></linearGradient><path d="m123.25 64a59.22 59.22 0 1 1 -30.369-51.747 1.75 1.75 0 1 1 -1.709 3.055 55.848 55.848 0 1 0 7.381 4.939 1.751 1.751 0 0 1 2.172-2.746 58.961 58.961 0 0 1 22.525 46.499zm-16.1 22.209a1.749 1.749 0 0 0 -2.384.665c-.612 1.085-1.276 2.16-1.974 3.2a1.75 1.75 0 1 0 2.9 1.955c.751-1.113 1.464-2.268 2.121-3.433a1.751 1.751 0 0 0 -.667-2.387zm1.751-3.778a1.752 1.752 0 0 0 2.249-1.035 50.377 50.377 0 1 0 -10.85 17.317 1.751 1.751 0 0 0 -2.53-2.42 46.564 46.564 0 1 1 10.091-16.111 1.752 1.752 0 0 0 1.039 2.249zm-80.37-40.076a1.747 1.747 0 0 0 1.461-.784 41.347 41.347 0 0 1 3.608-4.679 1.75 1.75 0 0 0 -2.612-2.33 44.655 44.655 0 0 0 -3.914 5.078 1.75 1.75 0 0 0 1.457 2.715zm21.422 50.566c-6.878.181-13.824-1.115-17.963-11.768-.142-.364-.274-.729-.4-1.093a1.75 1.75 0 0 0 -3.31 1.14c.141.409.29.82.449 1.228 4.963 12.772 13.984 14.172 21.371 13.99 5.78-.164 9.27-.264 12.837 2.471a1.749 1.749 0 0 0 2.128 0c3.567-2.734 7.059-2.634 12.889-2.47 7.315.2 16.354-1.219 21.318-13.995 12.348-31.81-32.478-58.324-34.392-59.437a1.752 1.752 0 0 0 -1.76 0c-1.517.883-37.167 21.928-36.5 49.056a1.717 1.717 0 0 0 1.792 1.706 1.748 1.748 0 0 0 1.706-1.792c-.562-22.81 28.415-42 33.879-45.407 6.18 3.856 42.389 27.871 32.009 54.606-4.135 10.651-11.106 11.957-18.006 11.763-5.63-.157-9.814-.277-14 2.439-4.186-2.715-8.373-2.595-14.047-2.437zm14.047-30.171a7.75 7.75 0 1 1 7.75-7.75 7.759 7.759 0 0 1 -7.75 7.75zm0-3.5a4.25 4.25 0 1 0 -4.25-4.25 4.254 4.254 0 0 0 4.25 4.25z" fill="url(#a)"/></svg>