<svg height="512" viewBox="0 0 128 128" width="512" xmlns="http://www.w3.org/2000/svg" xmlns:xlink="http://www.w3.org/1999/xlink"><linearGradient id="a" gradientUnits="userSpaceOnUse" x1="82.609" x2="48.315" y1="79.685" y2="45.391"><stop offset="0" stop-color="#3ba9fd"/><stop offset="1" stop-color="#bae543"/></linearGradient><path d="m122.737 5.263a1.751 1.751 0 0 0 -2.082-.3l-22.82 12.58a71.455 71.455 0 0 0 -16.1 12.106l-15.48 15.481a1.75 1.75 0 0 0 2.475 2.475l15.479-15.479a67.926 67.926 0 0 1 15.316-11.513l17.522-9.66-9.66 17.522a67.929 67.929 0 0 1 -11.514 15.317l-39.3 39.3-4.594-4.592 31.528-31.533a1.749 1.749 0 1 0 -2.474-2.474l-31.533 31.528-4.595-4.595 11.7-11.7a1.75 1.75 0 0 0 -2.475-2.475l-11.7 11.7-7.6-7.6a1.749 1.749 0 0 0 -2.475 0 10.723 10.723 0 0 0 -2.855 5.125 1.75 1.75 0 1 0 3.406.8 7.21 7.21 0 0 1 .843-2.068l29.039 29.047a7.265 7.265 0 0 1 -8.864-1.087l-19.092-19.092q-.263-.262-.494-.545a1.75 1.75 0 1 0 -2.712 2.213 10.842 10.842 0 0 0 .731.807l2.658 2.658-1.4 1.4a1.741 1.741 0 0 0 -2.44 2.439l-1.8 1.8a1.742 1.742 0 0 0 -2.441 2.44l-1.8 1.8a1.741 1.741 0 0 0 -2.44 2.439l-1.8 1.8a1.741 1.741 0 0 0 -2.44 2.439l-4.2 4.2a11.75 11.75 0 1 0 13.785 13.785l4.2-4.2a1.742 1.742 0 0 0 2.44-2.439l1.8-1.8a1.742 1.742 0 0 0 2.44-2.439l1.8-1.8a1.741 1.741 0 0 0 2.439-2.438l1.8-1.8a1.742 1.742 0 0 0 2.442-2.435l1.4-1.4 2.649 2.649a10.76 10.76 0 0 0 15.2 0 1.749 1.749 0 0 0 0-2.475l-7.6-7.6 39.3-39.3a71.486 71.486 0 0 0 12.107-16.1l12.58-22.82a1.748 1.748 0 0 0 -.299-2.091zm-97.937 97.937a11.667 11.667 0 0 0 -5.7-3.133l1.8-1.8 8.835 8.835-1.8 1.8a11.665 11.665 0 0 0 -3.135-5.702zm-1.429-7.4 1.768-1.767 8.835 8.835-1.768 1.767zm4.244-4.241 1.768-1.768 8.835 8.835-1.769 1.767zm4.243-4.242 1.768-1.767 8.835 8.834-1.761 1.761zm-21.2 30.028a8.25 8.25 0 1 1 11.667 0 8.258 8.258 0 0 1 -11.663-.007zm34.282-25.445-8.834-8.835 1.384-1.384 8.835 8.835zm14.315-37.3a1.751 1.751 0 0 1 0-2.475l2.938-2.937a1.749 1.749 0 0 1 2.474 2.474l-2.937 2.943a1.749 1.749 0 0 1 -2.475 0zm38.89-19.75a1.751 1.751 0 0 1 -.374-2.447c1.22-1.66 2.373-3.4 3.424-5.182a1.75 1.75 0 0 1 3.013 1.779c-1.111 1.878-2.328 3.72-3.617 5.473a1.751 1.751 0 0 1 -2.446.374zm-81.645 70.907a5.743 5.743 0 1 0 4.066 1.682 5.707 5.707 0 0 0 -4.066-1.682zm1.591 7.339a2.249 2.249 0 1 1 0-3.182 2.254 2.254 0 0 1 -.005 3.186z" fill="url(#a)"/></svg>