<?xml version="1.0"?>
<svg xmlns="http://www.w3.org/2000/svg" xmlns:xlink="http://www.w3.org/1999/xlink" width="512" height="512" viewBox="0 0 128 128"><defs><linearGradient id="a" x1="105.861" y1="105.861" x2="22.123" y2="22.123" gradientUnits="userSpaceOnUse"><stop offset="0" stop-color="#3ba9fd"/><stop offset="1" stop-color="#bae543"/></linearGradient></defs><path d="M123.25,64a59.648,59.648,0,0,1-1.012,10.954,1.749,1.749,0,1,1-3.439-.642,55.712,55.712,0,1,0-2.739,9.676,1.75,1.75,0,1,1,3.267,1.256A59.286,59.286,0,1,1,123.25,64ZM31.424,25.768a50.083,50.083,0,1,0,8.793-6.026,1.75,1.75,0,0,0,1.662,3.08A46.9,46.9,0,1,1,33.7,28.43a1.75,1.75,0,1,0-2.271-2.662ZM92.841,35.24a1.75,1.75,0,0,0,2.478-2.472,44.931,44.931,0,0,0-5.394-4.61,1.75,1.75,0,1,0-2.055,2.834A41.2,41.2,0,0,1,92.841,35.24ZM56.375,87.365a1.75,1.75,0,0,0,0,3.5H62a1.75,1.75,0,1,0,0-3.5Zm37.627,0H69.5a1.75,1.75,0,0,0,0,3.5H94a6.25,6.25,0,0,0,0-12.5H34a6.25,6.25,0,1,0,0,12.5H48.25a1.75,1.75,0,1,0,0-3.5H34a2.75,2.75,0,1,1,0-5.5H94a2.75,2.75,0,0,1,0,5.5ZM81.63,54.755v5.61H93.8a6.374,6.374,0,0,1,6.433,5.795,6.252,6.252,0,0,1-1.817,4.873A6.16,6.16,0,0,1,94,72.865H79.89a10.762,10.762,0,0,1-10.75-10.75v-7.36A5.138,5.138,0,0,0,63.3,49.684a5.294,5.294,0,0,0-4.429,5.345v7.086a10.762,10.762,0,0,1-10.75,10.75H34.214a6.592,6.592,0,0,1-4.7-2,6.079,6.079,0,0,1-1.763-4.431A6.258,6.258,0,0,1,34,60.365H46.37v-5.61a17.65,17.65,0,0,1,17.64-17.62,17.645,17.645,0,0,1,17.62,17.62Zm-1.75,9.11a1.749,1.749,0,0,1-1.75-1.75v-7.36a14.143,14.143,0,0,0-14.12-14.12,14.146,14.146,0,0,0-14.14,14.12v7.36a1.749,1.749,0,0,1-1.75,1.75H34a2.758,2.758,0,0,0-2.749,2.67,2.616,2.616,0,0,0,.774,1.9,3.079,3.079,0,0,0,2.189.935H48.12a7.258,7.258,0,0,0,7.25-7.25V55.029a8.623,8.623,0,0,1,8.624-8.892,8.637,8.637,0,0,1,8.646,8.618v7.36a7.258,7.258,0,0,0,7.25,7.25H94a2.7,2.7,0,0,0,1.935-.8,2.727,2.727,0,0,0,.808-2.157A2.9,2.9,0,0,0,93.8,63.865Z" fill="url(#a)"/></svg>
