<?xml version="1.0"?>
<svg xmlns="http://www.w3.org/2000/svg" xmlns:xlink="http://www.w3.org/1999/xlink" width="512" height="512" viewBox="0 0 128 128"><defs><linearGradient id="a" x1="105.876" y1="105.876" x2="22.105" y2="22.105" gradientUnits="userSpaceOnUse"><stop offset="0" stop-color="#3ba9fd"/><stop offset="1" stop-color="#bae543"/></linearGradient></defs><path d="M123.25,64A59.25,59.25,0,0,1,4.75,64,58.636,58.636,0,0,1,17.557,27.205,1.75,1.75,0,1,1,20.3,29.379,55.17,55.17,0,0,0,8.25,64a55.732,55.732,0,1,0,25.8-47.027,1.75,1.75,0,0,1-1.883-2.95A59.26,59.26,0,0,1,123.25,64ZM23.59,24.844a1.741,1.741,0,0,0,1.229-.505c1.15-1.134,2.36-2.231,3.6-3.258a1.75,1.75,0,0,0-2.234-2.694c-1.317,1.092-2.6,2.257-3.823,3.462a1.75,1.75,0,0,0,1.23,3Zm86.8,24.874a1.749,1.749,0,0,0,1.076-2.228,50.058,50.058,0,1,0,2.057,7.955,1.75,1.75,0,0,0-3.449.594,46.759,46.759,0,1,1-1.913-7.4A1.752,1.752,0,0,0,110.388,49.718ZM85.73,98.46a40.739,40.739,0,0,1-6.846,3.476,1.75,1.75,0,0,0,.641,3.379,1.77,1.77,0,0,0,.642-.122,44.286,44.286,0,0,0,7.435-3.776A1.75,1.75,0,1,0,85.73,98.46ZM100.252,64A6.257,6.257,0,0,0,94,57.75h-5.96A34.73,34.73,0,0,1,91.12,46.9a6.259,6.259,0,0,0-7.056-8.881,6.137,6.137,0,0,0-4.09,3.227,48.138,48.138,0,0,0-4.507,16.5H52.533a48.138,48.138,0,0,0-4.507-16.5,6.137,6.137,0,0,0-4.09-3.227A6.259,6.259,0,0,0,36.88,46.9,34.73,34.73,0,0,1,39.958,57.75H34a6.25,6.25,0,1,0,0,12.5h5.96A34.73,34.73,0,0,1,36.88,81.1a6.259,6.259,0,0,0,7.056,8.881,6.137,6.137,0,0,0,4.09-3.227,48.138,48.138,0,0,0,4.507-16.5H75.467c.113,1.118.258,2.225.431,3.306A1.75,1.75,0,0,0,79.354,73c-.241-1.5-.422-3.063-.541-4.633a1.749,1.749,0,0,0-1.745-1.619H50.932a1.749,1.749,0,0,0-1.745,1.619A45.666,45.666,0,0,1,44.9,85.187a2.612,2.612,0,0,1-1.767,1.387,2.757,2.757,0,0,1-3.114-3.918,39.849,39.849,0,0,0,3.637-14,1.751,1.751,0,0,0-1.743-1.906H34a2.75,2.75,0,1,1,0-5.5h7.911a1.751,1.751,0,0,0,1.743-1.906,39.849,39.849,0,0,0-3.637-14,2.758,2.758,0,0,1,3.114-3.918A2.612,2.612,0,0,1,44.9,42.813a45.666,45.666,0,0,1,4.291,16.818,1.749,1.749,0,0,0,1.745,1.619H77.068a1.749,1.749,0,0,0,1.745-1.619A45.666,45.666,0,0,1,83.1,42.813a2.612,2.612,0,0,1,1.767-1.387,2.757,2.757,0,0,1,3.114,3.918,39.849,39.849,0,0,0-3.637,14,1.751,1.751,0,0,0,1.743,1.906H94a2.75,2.75,0,1,1,0,5.5H86.091a1.751,1.751,0,0,0-1.743,1.906,39.849,39.849,0,0,0,3.637,14,2.758,2.758,0,0,1-3.114,3.918A2.61,2.61,0,0,1,83.1,85.186,36.89,36.89,0,0,1,80.945,79.8a1.75,1.75,0,0,0-3.338,1.054,40.348,40.348,0,0,0,2.367,5.9,6.137,6.137,0,0,0,4.09,3.227,6.336,6.336,0,0,0,1.457.17,6.257,6.257,0,0,0,5.6-9.051A34.73,34.73,0,0,1,88.042,70.25H94A6.257,6.257,0,0,0,100.252,64Z" fill="url(#a)"/></svg>
