<?xml version="1.0"?>
<svg xmlns="http://www.w3.org/2000/svg" xmlns:xlink="http://www.w3.org/1999/xlink" width="512" height="512" viewBox="0 0 128 128"><defs><linearGradient id="a" x1="105.921" y1="105.921" x2="22.124" y2="22.124" gradientUnits="userSpaceOnUse"><stop offset="0" stop-color="#3ba9fd"/><stop offset="1" stop-color="#bae543"/></linearGradient></defs><path d="M123.25,64a59.036,59.036,0,0,1-3.842,21.034,1.75,1.75,0,0,1-3.273-1.242,55.8,55.8,0,1,0-4.364,8.965,1.75,1.75,0,0,1,3,1.807A59.263,59.263,0,1,1,123.25,64ZM100.1,38.436a44.727,44.727,0,0,0-5.042-5.928A1.75,1.75,0,1,0,92.6,35a41.288,41.288,0,0,1,4.647,5.462,1.75,1.75,0,0,0,2.853-2.026Zm-42.35,7.4a1.75,1.75,0,0,1,3.5,0V66.869a1.75,1.75,0,0,1-.74,1.429L26.7,92.181a46.576,46.576,0,0,0,3.583,4.2L58.491,76.458a1.75,1.75,0,0,1,2.759,1.43V110.66c.912.053,1.827.09,2.75.09s1.839-.034,2.75-.088V77.888a1.75,1.75,0,0,1,2.759-1.43l28.182,19.9a46.918,46.918,0,0,0,3.592-4.194L67.49,68.3a1.75,1.75,0,0,1-.74-1.429V17.338c-.911-.054-1.826-.088-2.75-.088s-1.839.034-2.75.088V27.667a1.75,1.75,0,0,1-3.5,0V17.68A46.812,46.812,0,0,0,17.25,64c0,.9.026,1.81.077,2.7a1.75,1.75,0,0,1-3.494.2c-.055-.959-.083-1.935-.083-2.9a50.226,50.226,0,1,1,1.557,12.433,1.75,1.75,0,0,1,3.391-.867,46.728,46.728,0,0,0,5.993,13.747L57.75,65.962ZM103.284,89.3A46.7,46.7,0,0,0,70.25,17.68V65.962ZM70.25,110.32A46.587,46.587,0,0,0,95.132,98.838L70.25,81.266ZM57.75,81.266,32.842,98.856A46.692,46.692,0,0,0,57.75,110.328ZM59.5,41.2a1.751,1.751,0,0,0,1.75-1.75V34.833a1.75,1.75,0,0,0-3.5,0v4.616A1.751,1.751,0,0,0,59.5,41.2Z" fill="url(#a)"/></svg>
