<svg height="512" viewBox="0 0 128 128" width="512" xmlns="http://www.w3.org/2000/svg" xmlns:xlink="http://www.w3.org/1999/xlink"><linearGradient id="a" gradientUnits="userSpaceOnUse" x1="105.877" x2="22.082" y1="105.877" y2="22.082"><stop offset="0" stop-color="#3ba9fd"/><stop offset="1" stop-color="#bae543"/></linearGradient><path d="m123.25 64a59.25 59.25 0 1 1 -90.18-50.547 1.751 1.751 0 1 1 1.83 2.985 55.449 55.449 0 1 0 7.426-3.819 1.75 1.75 0 1 1 -1.361-3.219 59.282 59.282 0 0 1 82.285 54.6zm-13.336 15.733a1.755 1.755 0 0 0 -2.262 1.006c-.544 1.417-1.17 2.829-1.857 4.2a1.75 1.75 0 1 0 3.127 1.572c.739-1.471 1.412-2.989 2-4.514a1.751 1.751 0 0 0 -1.008-2.264zm3.148-4.845a50.341 50.341 0 1 0 -8.386 18.588 1.75 1.75 0 1 0 -2.832-2.057 46.476 46.476 0 1 1 7.8-17.289 1.75 1.75 0 0 0 3.416.758zm-18.2-38.332a1.75 1.75 0 0 0 1.267-2.956 44.736 44.736 0 0 0 -5.4-4.85 1.75 1.75 0 1 0 -2.118 2.787 41.261 41.261 0 0 1 4.98 4.469 1.746 1.746 0 0 0 1.267.55zm-30.862-8.806a30.217 30.217 0 0 0 -20.033 7.263 1.75 1.75 0 0 0 2.31 2.629 26.367 26.367 0 0 1 17.723-6.392c15.757 0 25.51 11.938 25.51 23a40.279 40.279 0 0 1 -2.373 14.011 10.545 10.545 0 0 1 -1.515-5.81 1.75 1.75 0 0 0 -3.494-.2c-.222 3.814 1.272 6.511 2.474 8.678 1.077 1.945 1.676 3.123 1.343 4.451a11.044 11.044 0 0 1 -6.36 6.677 6.462 6.462 0 0 0 -3.772 7.121c.5 2.833.349 4.2-.54 4.891-2.464 1.904-5.73 2.681-11.273 2.681s-8.809-.777-11.273-2.684c-.889-.686-1.04-2.058-.54-4.89a6.463 6.463 0 0 0 -3.772-7.122 11.042 11.042 0 0 1 -6.36-6.677c-.333-1.328.266-2.506 1.343-4.451 1.2-2.167 2.7-4.864 2.474-8.678a1.75 1.75 0 0 0 -3.494.2 10.545 10.545 0 0 1 -1.515 5.81 40.279 40.279 0 0 1 -2.373-14.008 21.463 21.463 0 0 1 2.832-10.537 1.75 1.75 0 1 0 -3.045-1.725 24.963 24.963 0 0 0 -3.287 12.262 42.289 42.289 0 0 0 3.832 18.2 6.679 6.679 0 0 0 -.149 3.829 1.6 1.6 0 0 0 .071.24 14.5 14.5 0 0 0 8.292 8.753 3.014 3.014 0 0 1 1.7 3.3c-.371 2.1-1.061 6.02 1.847 8.269 3.88 3 8.74 3.414 13.414 3.414s9.534-.414 13.414-3.414c2.908-2.249 2.218-6.165 1.847-8.27a3.013 3.013 0 0 1 1.7-3.3 14.5 14.5 0 0 0 8.292-8.753 1.644 1.644 0 0 0 .068-.227 6.681 6.681 0 0 0 -.146-3.842 42.285 42.285 0 0 0 3.832-18.2c.006-12.743-11.085-26.499-29.004-26.499zm9.53 45.8c-2.52-.544-6.33-3.5-6.33-6.726 0-2.723 2.568-4.415 6.7-4.415 3.53 0 6.4 2.508 6.4 5.59a5.837 5.837 0 0 1 -2.16 4.5 5.309 5.309 0 0 1 -3.368 1.19 5.9 5.9 0 0 1 -1.242-.136zm.739-3.422a1.9 1.9 0 0 0 1.672-.357 2.365 2.365 0 0 0 .859-1.771c0-1.113-1.356-2.09-2.9-2.09-1.885 0-3.2.483-3.2.915 0 1.068 2.068 2.983 3.569 3.306zm-13.469-3.301c0 3.222-3.81 6.182-6.33 6.726a5.9 5.9 0 0 1 -1.242.135 5.309 5.309 0 0 1 -3.368-1.188 5.837 5.837 0 0 1 -2.16-4.5c0-3.082 2.871-5.59 6.4-5.59 4.132.002 6.7 1.69 6.7 4.417zm-3.5 0c0-.432-1.314-.915-3.2-.915-1.545 0-2.9.977-2.9 2.09a2.365 2.365 0 0 0 .859 1.772 1.9 1.9 0 0 0 1.672.357c1.501-.323 3.569-2.238 3.569-3.304zm12.15 17.385c0 3.176-1.834 4.788-5.45 4.788s-5.45-1.61-5.45-4.786c0-3.429 2.123-8.408 5.45-8.408s5.45 4.977 5.45 8.406zm-3.5 0c0-2.263-1.361-4.745-1.98-4.911-.559.166-1.92 2.648-1.92 4.911 0 1.014 0 1.286 1.95 1.286s1.95-.272 1.95-1.286z" fill="url(#a)"/></svg>