<svg height="512" viewBox="0 0 128 128" width="512" xmlns="http://www.w3.org/2000/svg" xmlns:xlink="http://www.w3.org/1999/xlink"><linearGradient id="a" gradientUnits="userSpaceOnUse" x1="103.065" x2="24.935" y1="89.41" y2="11.28"><stop offset="0" stop-color="#3ba9fd"/><stop offset="1" stop-color="#bae543"/></linearGradient><path d="m117.117 36.581-11.75-22.881a1.75 1.75 0 0 0 -3.114 0l-11.753 22.87a1.751 1.751 0 0 0 1.555 2.55l5.5.007v1.563a33.631 33.631 0 0 1 -27.305 32.975v-17a1.75 1.75 0 0 0 -3.5 0v38.143a1.751 1.751 0 0 0 1.75 1.75h13.654v5.5h-13.654a1.75 1.75 0 0 0 -1.75 1.75v15.942h-5.5v-3a1.75 1.75 0 0 0 -3.5 0v4.75a1.751 1.751 0 0 0 1.75 1.75h9a1.751 1.751 0 0 0 1.75-1.75v-15.942h13.65a1.751 1.751 0 0 0 1.75-1.75v-9a1.75 1.75 0 0 0 -1.75-1.75h-13.65v-6.743a45.894 45.894 0 0 0 39.81-45.625v-1.56h5.5a1.75 1.75 0 0 0 1.557-2.549zm-8.807-.951a1.751 1.751 0 0 0 -1.75 1.75v3.31a42.408 42.408 0 0 1 -36.31 42.1v-5.566a37.137 37.137 0 0 0 30.81-36.534v-3.31a1.749 1.749 0 0 0 -1.747-1.75l-4.388-.006 8.885-17.294 8.884 17.3zm-50.56 69.928h-13.65a1.751 1.751 0 0 1 -1.75-1.75v-9a1.75 1.75 0 0 1 1.75-1.75h13.65v-6.743a45.894 45.894 0 0 1 -39.81-45.625v-1.563l-5.5-.007a1.751 1.751 0 0 1 -1.555-2.55l11.748-22.87a1.75 1.75 0 0 1 3.114 0l11.753 22.881a1.75 1.75 0 0 1 -1.56 2.549h-5.5v1.56a33.243 33.243 0 0 0 2.76 13.332 1.75 1.75 0 1 1 -3.21 1.4 36.73 36.73 0 0 1 -3.05-14.732v-3.31a1.751 1.751 0 0 1 1.75-1.75h4.384l-8.885-17.3-8.884 17.294 4.387.006a1.75 1.75 0 0 1 1.748 1.75v3.31a42.408 42.408 0 0 0 36.31 42.1v-5.567a36.919 36.919 0 0 1 -22.562-13.245 1.75 1.75 0 1 1 2.72-2.2 33.437 33.437 0 0 0 19.842 11.887v-42.542h-5.5a1.75 1.75 0 0 1 -1.557-2.55l11.75-22.873a1.75 1.75 0 0 1 3.114 0l11.75 22.88a1.751 1.751 0 0 1 -1.557 2.55h-5.5v8.12a1.75 1.75 0 0 1 -3.5 0v-9.873a1.75 1.75 0 0 1 1.75-1.75h4.383l-8.883-17.297-8.884 17.291h4.384a1.751 1.751 0 0 1 1.75 1.75v65.437a1.751 1.751 0 0 1 -1.75 1.75h-13.654v5.5h13.654a1.75 1.75 0 0 1 1.75 1.75v4.13a1.75 1.75 0 0 1 -3.5 0zm12.5-59.725v3.8a1.75 1.75 0 0 1 -3.5 0v-3.8a1.75 1.75 0 0 1 3.5 0z" fill="url(#a)"/></svg>